<?xml version="1.0" encoding="UTF-8"?>
<svg width="16px" height="9px" viewBox="0 0 16 9" version="1.1" xmlns="http://www.w3.org/2000/svg" xmlns:xlink="http://www.w3.org/1999/xlink">
    <!-- Generator: Sketch 46.2 (44496) - http://www.bohemiancoding.com/sketch -->
    <title>Fill 1</title>
    <desc>Created with Sketch.</desc>
    <defs></defs>
    <g id="Mockups" stroke="none" stroke-width="1" fill="none" fill-rule="evenodd">
        <g id="7_Carriage---Checkout-Page-(Logged-in-user)" transform="translate(-750.000000, -777.000000)" fill="#E1523D">
            <g id="Group-54" transform="translate(55.000000, 421.000000)">
                <g id="Group-9" transform="translate(0.000000, 171.000000)">
                    <g id="Group-11" transform="translate(405.000000, 138.000000)">
                        <g id="Group-15" transform="translate(27.000000, 41.000000)">
                            <path d="M278.819028,13.5590393 L271.401245,6.15395579 C271.296528,6.04941791 271.153732,6.00950344 271.010935,6.00950344 C271.001416,6.00950344 270.995704,6.00190069 270.986184,6 C270.978568,6.00190069 270.970953,6.00950344 270.963337,6.00950344 C270.818637,6.00950344 270.677744,6.04941791 270.573027,6.15395579 L263.155244,13.5590393 C262.932482,13.7814199 262.951522,14.1634583 263.199035,14.4105478 C263.446548,14.6576374 263.829242,14.678545 264.052004,14.4542637 L270.986184,7.53195516 L277.922268,14.4542637 C278.14503,14.678545 278.52582,14.6576374 278.773333,14.4105478 C279.02275,14.1634583 279.04179,13.7814199 278.819028,13.5590393" id="Fill-1" transform="translate(270.987040, 10.305000) scale(1, -1) translate(-270.987040, -10.305000) "></path>
                        </g>
                    </g>
                </g>
            </g>
        </g>
    </g>
</svg>