<?xml version="1.0" encoding="UTF-8"?>
<svg width="100px" height="64px" viewBox="0 0 100 64" version="1.1" xmlns="http://www.w3.org/2000/svg" xmlns:xlink="http://www.w3.org/1999/xlink">
    <!-- Generator: Sketch 46.2 (44496) - http://www.bohemiancoding.com/sketch -->
    <title>Group 3</title>
    <desc>Created with Sketch.</desc>
    <defs>
        <rect id="path-1" x="0" y="0" width="47" height="32" rx="4"></rect>
        <rect id="path-3" x="0" y="0" width="47" height="32" rx="4"></rect>
        <rect id="path-5" x="0" y="0" width="47" height="32" rx="4"></rect>
        <rect id="path-7" x="0" y="0" width="47" height="32" rx="4"></rect>
        <rect id="path-9" x="0" y="0" width="47" height="32" rx="4"></rect>
        <rect id="path-11" x="0" y="0" width="47" height="32" rx="4"></rect>
        <rect id="path-13" x="0" y="0" width="47" height="32" rx="4"></rect>
        <rect id="path-15" x="0" y="0" width="47" height="32" rx="4"></rect>
        <rect id="path-17" x="0" y="0" width="47" height="32" rx="4"></rect>
        <rect id="path-19" x="0" y="0" width="47" height="32" rx="4"></rect>
        <rect id="path-21" x="0" y="0" width="47" height="32" rx="4"></rect>
        <rect id="path-23" x="0" y="0" width="47" height="32" rx="4"></rect>
        <rect id="path-25" x="0" y="0" width="47" height="32" rx="4"></rect>
        <rect id="path-27" x="0" y="0" width="47" height="32" rx="4"></rect>
        <rect id="path-29" x="0" y="0" width="47" height="32" rx="4"></rect>
        <rect id="path-31" x="0" y="0" width="47" height="32" rx="4"></rect>
        <rect id="path-33" x="0" y="0" width="47" height="32" rx="4"></rect>
        <rect id="path-35" x="0" y="0" width="47" height="32" rx="4"></rect>
        <rect id="path-37" x="0" y="0" width="47" height="32" rx="4"></rect>
        <rect id="path-39" x="0" y="0" width="47" height="32" rx="4"></rect>
        <rect id="path-41" x="0" y="0" width="47" height="32" rx="4"></rect>
        <rect id="path-43" x="0" y="0" width="47" height="32" rx="4"></rect>
        <rect id="path-45" x="0" y="0" width="47" height="32" rx="4"></rect>
        <rect id="path-47" x="0" y="0" width="47" height="32" rx="4"></rect>
    </defs>
    <g id="Page-1" stroke="none" stroke-width="1" fill="none" fill-rule="evenodd">
        <g id="Group-3">
            <g id="credit_cards_icons_bw">
                <g id="Mask-Clipped">
                    <mask id="mask-2" fill="white">
                        <use xlink:href="#path-1"></use>
                    </mask>
                    <g id="path-1"></g>
                    <g id="Mask" mask="url(#mask-2)">
                        <g id="path-1-Clipped">
                            <mask id="mask-4" fill="white">
                                <use xlink:href="#path-3"></use>
                            </mask>
                            <g id="path-1"></g>
                            <rect id="path-1" stroke="#C9C9C9" mask="url(#mask-4)" x="0" y="0" width="47" height="32" rx="4"></rect>
                        </g>
                    </g>
                </g>
                <g id="Fill-2-Clipped">
                    <mask id="mask-6" fill="white">
                        <use xlink:href="#path-5"></use>
                    </mask>
                    <g id="path-1"></g>
                    <polyline id="Fill-2" fill="#C7C7C7" fill-rule="nonzero" mask="url(#mask-6)" points="17.823631 22.3311005 19.5772739 11.6264525 22.3818806 11.6264525 20.6270551 22.3311005 17.823631 22.3311005"></polyline>
                </g>
                <g id="Fill-3-Clipped">
                    <mask id="mask-8" fill="white">
                        <use xlink:href="#path-7"></use>
                    </mask>
                    <g id="path-1"></g>
                    <path d="M30.7990517,11.8899521 C30.2434127,11.6730007 29.3728001,11.4404648 28.2853719,11.4404648 C25.514273,11.4404648 23.5619482,12.8922761 23.5453914,14.9730007 C23.52982,16.5111415 24.9391206,17.3693096 26.0028963,17.8813397 C27.0944636,18.4058783 27.4616702,18.7405331 27.4563483,19.2090909 C27.4494497,19.9265893 26.584553,20.2544771 25.7783937,20.2544771 C24.6558808,20.2544771 24.0596383,20.0922761 23.1385666,19.6926179 L22.7770762,19.5224197 L22.3834575,21.9187287 C23.0386345,22.2174983 24.2500417,22.4764866 25.5075714,22.4898154 C28.4558677,22.4898154 30.3695599,21.0546138 30.3914386,18.8326042 C30.4020823,17.6149693 29.6546602,16.6881066 28.0368225,15.9242653 C27.0564223,15.4290499 26.4560406,15.0984962 26.4623479,14.5971291 C26.4623479,14.1521531 26.9704846,13.6764183 28.0685564,13.6764183 C28.9856859,13.6616542 29.6499296,13.8695831 30.1675273,14.0865345 L30.4188362,14.2099795 L30.7990517,11.8899521" id="Fill-3" fill="#C7C7C7" fill-rule="nonzero" mask="url(#mask-8)"></path>
                </g>
                <g id="Fill-4-Clipped">
                    <mask id="mask-10" fill="white">
                        <use xlink:href="#path-9"></use>
                    </mask>
                    <g id="path-1"></g>
                    <path d="M37.990821,11.6367054 L35.8236518,11.6367054 C35.1523122,11.6367054 34.6498917,11.8272043 34.3550226,12.5244019 L30.1898002,22.3345865 L33.1349428,22.3345865 C33.1349428,22.3345865 33.6164702,21.0154477 33.7254693,20.7259057 C34.0473417,20.7259057 36.9081234,20.7304169 37.3171162,20.7304169 C37.4010829,21.1050581 37.658502,22.3345865 37.658502,22.3345865 L40.260879,22.3345865 L37.990821,11.6367054 M34.5326142,18.5362953 C34.7644097,17.9194806 35.6500023,15.5438824 35.6500023,15.5438824 C35.6332484,15.5723855 35.8802209,14.9241968 36.0217422,14.522283 L36.2113572,15.4452495 C36.2113572,15.4452495 36.7484683,18.0004785 36.8606211,18.5362953 L34.5326142,18.5362953" id="Fill-4" fill="#C7C7C7" fill-rule="nonzero" mask="url(#mask-10)"></path>
                </g>
                <g id="Fill-5-Clipped">
                    <mask id="mask-12" fill="white">
                        <use xlink:href="#path-11"></use>
                    </mask>
                    <g id="path-1"></g>
                    <path d="M15.4713801,11.6342447 L12.7255107,18.934108 L12.4330069,17.4505127 C11.9219137,15.7403281 10.3293055,13.8876281 8.54865909,12.9601504 L11.0593823,22.3218729 L14.0267977,22.3183869 L18.4421464,11.6342447 L15.4713801,11.6342447" id="Fill-5" fill="#C7C7C7" fill-rule="nonzero" mask="url(#mask-12)"></path>
                </g>
                <g id="Fill-6-Clipped">
                    <mask id="mask-14" fill="white">
                        <use xlink:href="#path-13"></use>
                    </mask>
                    <g id="path-1"></g>
                    <path d="M10.1783231,11.6276829 L5.65594643,11.6276829 L5.62007332,11.8503759 C9.13859429,12.736432 11.4666012,14.8776487 12.4330069,17.4505127 L11.4496502,12.5313739 C11.2797456,11.8534518 10.7873774,11.6512646 10.1783231,11.6276829" id="Fill-6" fill="#E2E2E2" fill-rule="nonzero" mask="url(#mask-14)"></path>
                </g>
                <g id="Mask-Clipped" transform="translate(53.000000, 0.000000)">
                    <mask id="mask-16" fill="white">
                        <use xlink:href="#path-15"></use>
                    </mask>
                    <g id="path-5"></g>
                    <g id="Mask" opacity="0.453464674" mask="url(#mask-16)">
                        <g id="path-5-link">
                            <g id="path-5-Clipped">
                                <mask id="mask-18" fill="white">
                                    <use xlink:href="#path-17"></use>
                                </mask>
                                <g id="path-5"></g>
                                <rect id="path-5" stroke="#C9C9C9" mask="url(#mask-18)" x="0" y="0" width="47" height="32" rx="4"></rect>
                            </g>
                        </g>
                    </g>
                </g>
                <g id="Fill-1-Clipped" transform="translate(53.000000, 0.000000)">
                    <mask id="mask-20" fill="white">
                        <use xlink:href="#path-19"></use>
                    </mask>
                    <g id="path-5"></g>
                    <path d="M21.2726957,16.5123763 C21.2726957,14.1697021 22.3455387,12.0839574 24.016175,10.7341364 C22.7844643,9.73870781 21.2282205,9.14283734 19.5346667,9.14283734 C15.5443279,9.14283734 12.309485,12.4423117 12.309485,16.5123763 C12.309485,20.5824411 15.5443279,23.8819154 19.5346667,23.8819154 C21.2282205,23.8819154 22.7844643,23.2858469 24.016175,22.2906163 C22.3455387,20.9407954 21.2726957,18.8550506 21.2726957,16.5123763" id="Fill-1" fill="#E2E2E2" fill-rule="nonzero" mask="url(#mask-20)"></path>
                </g>
                <g id="Fill-4-Clipped" transform="translate(53.000000, 0.000000)">
                    <mask id="mask-22" fill="white">
                        <use xlink:href="#path-21"></use>
                    </mask>
                    <g id="path-5"></g>
                    <path d="M21.2726957,16.5123763 C21.2726957,18.8550506 22.3455387,20.9407954 24.016175,22.2906163 C25.6868114,20.9407954 26.7596543,18.8550506 26.7596543,16.5123763 C26.7596543,14.1697021 25.6868114,12.0839574 24.016175,10.7341364 C22.3455387,12.0839574 21.2726957,14.1697021 21.2726957,16.5123763" id="Fill-4" fill="#CECECE" fill-rule="nonzero" mask="url(#mask-22)"></path>
                </g>
                <g id="Fill-8-Clipped" transform="translate(53.000000, 0.000000)">
                    <mask id="mask-24" fill="white">
                        <use xlink:href="#path-23"></use>
                    </mask>
                    <g id="path-5"></g>
                    <path d="M28.4978193,9.14281752 C26.8042655,9.14281752 25.2482159,9.738688 24.016311,10.7341166 C25.6867531,12.0839375 26.7597903,14.1696823 26.7597903,16.5123566 C26.7597903,18.8550309 25.6867531,20.9407757 24.016311,22.2905966 C25.2482159,23.2860251 26.8042655,23.8818957 28.4978193,23.8818957 C32.4881581,23.8818957 35.7230011,20.5824214 35.7230011,16.5123566 C35.7230011,12.4422918 32.4881581,9.14281752 28.4978193,9.14281752" id="Fill-8" fill="#CECECE" fill-rule="nonzero" mask="url(#mask-24)"></path>
                </g>
            </g>
            <g id="credit_cards_icons" transform="translate(0.000000, 32.000000)">
                <g id="Mask-Clipped">
                    <mask id="mask-26" fill="white">
                        <use xlink:href="#path-25"></use>
                    </mask>
                    <g id="path-1"></g>
                    <g id="Mask" mask="url(#mask-26)">
                        <g id="path-1-Clipped">
                            <mask id="mask-28" fill="white">
                                <use xlink:href="#path-27"></use>
                            </mask>
                            <g id="path-1"></g>
                            <rect id="path-1" stroke="#004F8B" mask="url(#mask-28)" x="0" y="0" width="47" height="32" rx="4"></rect>
                        </g>
                    </g>
                </g>
                <g id="Fill-2-Clipped">
                    <mask id="mask-30" fill="white">
                        <use xlink:href="#path-29"></use>
                    </mask>
                    <g id="path-1"></g>
                    <polyline id="Fill-2" fill="#004F8B" fill-rule="nonzero" mask="url(#mask-30)" points="17.823631 22.3311005 19.5772739 11.6264525 22.3818806 11.6264525 20.6270551 22.3311005 17.823631 22.3311005"></polyline>
                </g>
                <g id="Fill-3-Clipped">
                    <mask id="mask-32" fill="white">
                        <use xlink:href="#path-31"></use>
                    </mask>
                    <g id="path-1"></g>
                    <path d="M30.7990517,11.8899521 C30.2434127,11.6730007 29.3728001,11.4404648 28.2853719,11.4404648 C25.514273,11.4404648 23.5619482,12.8922761 23.5453914,14.9730007 C23.52982,16.5111415 24.9391206,17.3693096 26.0028963,17.8813397 C27.0944636,18.4058783 27.4616702,18.7405331 27.4563483,19.2090909 C27.4494497,19.9265893 26.584553,20.2544771 25.7783937,20.2544771 C24.6558808,20.2544771 24.0596383,20.0922761 23.1385666,19.6926179 L22.7770762,19.5224197 L22.3834575,21.9187287 C23.0386345,22.2174983 24.2500417,22.4764866 25.5075714,22.4898154 C28.4558677,22.4898154 30.3695599,21.0546138 30.3914386,18.8326042 C30.4020823,17.6149693 29.6546602,16.6881066 28.0368225,15.9242653 C27.0564223,15.4290499 26.4560406,15.0984962 26.4623479,14.5971291 C26.4623479,14.1521531 26.9704846,13.6764183 28.0685564,13.6764183 C28.9856859,13.6616542 29.6499296,13.8695831 30.1675273,14.0865345 L30.4188362,14.2099795 L30.7990517,11.8899521" id="Fill-3" fill="#004F8B" fill-rule="nonzero" mask="url(#mask-32)"></path>
                </g>
                <g id="Fill-4-Clipped">
                    <mask id="mask-34" fill="white">
                        <use xlink:href="#path-33"></use>
                    </mask>
                    <g id="path-1"></g>
                    <path d="M37.990821,11.6367054 L35.8236518,11.6367054 C35.1523122,11.6367054 34.6498917,11.8272043 34.3550226,12.5244019 L30.1898002,22.3345865 L33.1349428,22.3345865 C33.1349428,22.3345865 33.6164702,21.0154477 33.7254693,20.7259057 C34.0473417,20.7259057 36.9081234,20.7304169 37.3171162,20.7304169 C37.4010829,21.1050581 37.658502,22.3345865 37.658502,22.3345865 L40.260879,22.3345865 L37.990821,11.6367054 M34.5326142,18.5362953 C34.7644097,17.9194806 35.6500023,15.5438824 35.6500023,15.5438824 C35.6332484,15.5723855 35.8802209,14.9241968 36.0217422,14.522283 L36.2113572,15.4452495 C36.2113572,15.4452495 36.7484683,18.0004785 36.8606211,18.5362953 L34.5326142,18.5362953" id="Fill-4" fill="#004F8B" fill-rule="nonzero" mask="url(#mask-34)"></path>
                </g>
                <g id="Fill-5-Clipped">
                    <mask id="mask-36" fill="white">
                        <use xlink:href="#path-35"></use>
                    </mask>
                    <g id="path-1"></g>
                    <path d="M15.4713801,11.6342447 L12.7255107,18.934108 L12.4330069,17.4505127 C11.9219137,15.7403281 10.3293055,13.8876281 8.54865909,12.9601504 L11.0593823,22.3218729 L14.0267977,22.3183869 L18.4421464,11.6342447 L15.4713801,11.6342447" id="Fill-5" fill="#004F8B" fill-rule="nonzero" mask="url(#mask-36)"></path>
                </g>
                <g id="Fill-6-Clipped">
                    <mask id="mask-38" fill="white">
                        <use xlink:href="#path-37"></use>
                    </mask>
                    <g id="path-1"></g>
                    <path d="M10.1783231,11.6276829 L5.65594643,11.6276829 L5.62007332,11.8503759 C9.13859429,12.736432 11.4666012,14.8776487 12.4330069,17.4505127 L11.4496502,12.5313739 C11.2797456,11.8534518 10.7873774,11.6512646 10.1783231,11.6276829" id="Fill-6" fill="#EE9F2D" fill-rule="nonzero" mask="url(#mask-38)"></path>
                </g>
                <g id="Mask-Clipped" transform="translate(53.000000, 0.000000)">
                    <mask id="mask-40" fill="white">
                        <use xlink:href="#path-39"></use>
                    </mask>
                    <g id="path-5"></g>
                    <g id="Mask" opacity="0.453464674" mask="url(#mask-40)">
                        <g id="path-5-link">
                            <g id="path-5-Clipped">
                                <mask id="mask-42" fill="white">
                                    <use xlink:href="#path-41"></use>
                                </mask>
                                <g id="path-5"></g>
                                <rect id="path-5" stroke="#6D6D6D" mask="url(#mask-42)" x="0" y="0" width="47" height="32" rx="4"></rect>
                            </g>
                        </g>
                    </g>
                </g>
                <g id="Fill-1-Clipped" transform="translate(53.000000, 0.000000)">
                    <mask id="mask-44" fill="white">
                        <use xlink:href="#path-43"></use>
                    </mask>
                    <g id="path-5"></g>
                    <path d="M21.2726957,16.5123763 C21.2726957,14.1697021 22.3455387,12.0839574 24.016175,10.7341364 C22.7844643,9.73870781 21.2282205,9.14283734 19.5346667,9.14283734 C15.5443279,9.14283734 12.309485,12.4423117 12.309485,16.5123763 C12.309485,20.5824411 15.5443279,23.8819154 19.5346667,23.8819154 C21.2282205,23.8819154 22.7844643,23.2858469 24.016175,22.2906163 C22.3455387,20.9407954 21.2726957,18.8550506 21.2726957,16.5123763" id="Fill-1" fill="#E30E17" fill-rule="nonzero" mask="url(#mask-44)"></path>
                </g>
                <g id="Fill-4-Clipped" transform="translate(53.000000, 0.000000)">
                    <mask id="mask-46" fill="white">
                        <use xlink:href="#path-45"></use>
                    </mask>
                    <g id="path-5"></g>
                    <path d="M21.2726957,16.5123763 C21.2726957,18.8550506 22.3455387,20.9407954 24.016175,22.2906163 C25.6868114,20.9407954 26.7596543,18.8550506 26.7596543,16.5123763 C26.7596543,14.1697021 25.6868114,12.0839574 24.016175,10.7341364 C22.3455387,12.0839574 21.2726957,14.1697021 21.2726957,16.5123763" id="Fill-4" fill="#EB600A" fill-rule="nonzero" mask="url(#mask-46)"></path>
                </g>
                <g id="Fill-8-Clipped" transform="translate(53.000000, 0.000000)">
                    <mask id="mask-48" fill="white">
                        <use xlink:href="#path-47"></use>
                    </mask>
                    <g id="path-5"></g>
                    <path d="M28.4978193,9.14281752 C26.8042655,9.14281752 25.2482159,9.738688 24.016311,10.7341166 C25.6867531,12.0839375 26.7597903,14.1696823 26.7597903,16.5123566 C26.7597903,18.8550309 25.6867531,20.9407757 24.016311,22.2905966 C25.2482159,23.2860251 26.8042655,23.8818957 28.4978193,23.8818957 C32.4881581,23.8818957 35.7230011,20.5824214 35.7230011,16.5123566 C35.7230011,12.4422918 32.4881581,9.14281752 28.4978193,9.14281752" id="Fill-8" fill="#F59F00" fill-rule="nonzero" mask="url(#mask-48)"></path>
                </g>
            </g>
        </g>
    </g>
</svg>