<?xml version="1.0" encoding="UTF-8"?>
<svg width="25px" height="25px" viewBox="0 0 25 25" version="1.1" xmlns="http://www.w3.org/2000/svg" xmlns:xlink="http://www.w3.org/1999/xlink">
    <!-- Generator: Sketch 46.2 (44496) - http://www.bohemiancoding.com/sketch -->
    <title>Shape</title>
    <desc>Created with Sketch.</desc>
    <defs></defs>
    <g id="Mockups" stroke="none" stroke-width="1" fill="none" fill-rule="evenodd">
        <g id="7_Carriage---Checkout-Page-(Logged-in-user)" transform="translate(-84.000000, -625.000000)" fill="#403F45">
            <g id="Group-54" transform="translate(55.000000, 421.000000)">
                <g id="Group-9" transform="translate(0.000000, 171.000000)">
                    <path d="M35.549219,50.5893193 L30.3562178,50.5893193 C30.0200701,50.5893193 29.7474751,50.3167964 29.7474751,49.9806017 C29.7474751,49.6444071 30.0200701,49.3718842 30.3562178,49.3718842 L35.549219,49.3718842 C35.8853668,49.3718842 36.1579617,49.6444071 36.1579617,49.9806017 C36.1579617,50.3167964 35.8853668,50.5893193 35.549219,50.5893193 Z M30.7658408,34.2174351 L35.1965744,34.2174351 C35.5244432,34.2174351 35.7911943,34.4841142 35.7911943,34.8119695 C35.7911943,35.1399465 35.5244432,35.4067474 35.1965744,35.4067474 L32.3847919,35.4067474 C31.3856626,35.4067474 30.5727476,36.2195679 30.5727476,37.2187169 C30.5727476,38.2179876 31.3856626,39.0309299 32.3847919,39.0309299 L34.3288726,39.0309299 C34.6567414,39.0309299 34.9234924,39.2977307 34.9234924,39.6257078 L34.9234924,40.5490714 C34.9234924,40.8852661 35.1960874,41.1577889 35.5322351,41.1577889 C35.8683828,41.1577889 36.1409778,40.8852661 36.1409778,40.5490714 L36.1409778,39.6257078 C36.1409778,38.626437 35.3280628,37.8134948 34.3288726,37.8134948 L32.3847919,37.8134948 C32.0569231,37.8134948 31.790233,37.5466939 31.790233,37.2187169 C31.790233,36.8909225 32.0569231,36.6241825 32.3847919,36.6241825 L35.1965744,36.6241825 C36.1957646,36.6241825 37.0086796,35.8112402 37.0086796,34.8119695 C37.0086796,33.8128205 36.1957646,33 35.1965744,33 L30.7658408,33 C30.4296931,33 30.1570981,33.2725228 30.1570981,33.6087175 C30.1570981,33.9449122 30.4296322,34.2174351 30.7658408,34.2174351 L30.7658408,34.2174351 Z M53.9799995,42.4934978 L53.9799995,57.3012823 C53.9799995,57.637477 53.7074046,57.9099998 53.3712569,57.9099998 L32.5014879,57.9099998 C32.1653402,57.9099998 31.8927452,57.637477 31.8927452,57.3012823 L31.8927452,52.8486962 L31.0187125,52.8486962 C30.6825648,52.8486962 30.4099698,52.5761733 30.4099698,52.2399786 C30.4099698,51.9037839 30.6825648,51.6312611 31.0187125,51.6312611 L37.9354904,51.6312611 C38.2716381,51.6312611 38.544233,51.9037839 38.544233,52.2399786 C38.544233,52.5761733 38.2716381,52.8486962 37.9354904,52.8486962 L33.1102306,52.8486962 L33.1102306,56.6925648 L52.7625142,56.6925648 L52.7625142,43.1022153 L33.1102306,43.1022153 L33.1102306,47.1125073 L39.1822563,47.1125073 C39.518404,47.1125073 39.7909989,47.3850302 39.7909989,47.7212249 C39.7909989,48.0574196 39.518404,48.3299424 39.1822563,48.3299424 L29.6087427,48.3299424 C29.272595,48.3299424 29,48.0574196 29,47.7212249 C29,47.3850302 29.272595,47.1125073 29.6087427,47.1125073 L31.8927452,47.1125073 L31.8927452,42.4934978 C31.8927452,42.1573031 32.1653402,41.8847803 32.5014879,41.8847803 L37.8850865,41.8847803 L37.8850865,36.570311 C37.8850865,34.6016576 39.4867493,33 41.4554232,33 L44.4173216,33 C46.3860563,33 47.9877192,34.6016576 47.9877192,36.570311 L47.9877192,41.8848411 L53.3712569,41.8848411 C53.7074046,41.8847803 53.9799995,42.1573031 53.9799995,42.4934978 L53.9799995,42.4934978 Z M46.7702338,36.570311 C46.7702338,35.2729513 45.7147349,34.2174351 44.4173216,34.2174351 L41.4554232,34.2174351 C40.1580099,34.2174351 39.1025718,35.2729513 39.1025718,36.570311 L39.1025718,41.8848411 L46.7702947,41.8848411 L46.7702947,36.570311 L46.7702338,36.570311 Z M42.4423777,54.3858297 L39.5075075,50.8746861 C39.3559305,50.6933491 39.3230584,50.4406705 39.4231357,50.2265236 C39.523213,50.0123768 39.7382209,49.875598 39.9745957,49.875598 L40.5947219,49.875598 C42.135754,47.0502355 43.5166259,45.1906035 45.1575527,45.1906035 C46.7984186,45.1906035 48.1792905,47.0502355 49.7203835,49.875598 L50.3405705,49.875598 C50.5769453,49.875598 50.7919532,50.0124377 50.8920305,50.2265236 C50.9921687,50.4406705 50.9592357,50.6933491 50.8076588,50.8746861 L47.8727886,54.3858297 C47.7571275,54.5241912 47.5860708,54.6041767 47.4057003,54.6041767 L42.9095268,54.6041767 C42.7290955,54.6041767 42.5580997,54.524252 42.4423777,54.3858297 L42.4423777,54.3858297 Z M41.9878904,49.875598 L48.3271541,49.875598 C47.3699671,48.1917635 46.1607606,46.4080385 45.1575527,46.4080385 C44.1543448,46.4080385 42.9450165,48.1918244 41.9878904,49.875598 L41.9878904,49.875598 Z M41.2768181,51.093033 L43.1940532,53.3867416 L47.1211131,53.3867416 L49.0383482,51.093033 L41.2768181,51.093033 L41.2768181,51.093033 Z" id="Shape"></path>
                </g>
            </g>
        </g>
    </g>
</svg>