<?xml version="1.0" encoding="UTF-8"?>
<svg width="60px" height="60px" viewBox="0 0 60 60" version="1.1" xmlns="http://www.w3.org/2000/svg" xmlns:xlink="http://www.w3.org/1999/xlink">
    <!-- Generator: Sketch 49.3 (51167) - http://www.bohemiancoding.com/sketch -->
    <title>web_beauty_icon_white@1x</title>
    <desc>Created with Sketch.</desc>
    <defs></defs>
    <g id="web_beauty_icon_white" stroke="none" stroke-width="1" fill="none" fill-rule="evenodd">
        <g id="Group" transform="translate(13.000000, 12.000000)" fill="#FFFFFF">
            <path d="M1.39275862,34.57764 L9.09396552,34.57764 L9.09396552,17.96004 L1.39275862,17.96004 L1.39275862,34.57764 Z M2.48982759,16.58964 L7.99689655,16.58964 L7.99689655,14.08164 L2.48982759,14.08164 L2.48982759,16.58964 Z M3.24534483,5.60124 C3.24534483,5.27004 3.51568966,5.00124 3.8487931,5.00124 C3.94293103,5.00124 4.03465517,5.02284 4.11672414,5.06364 L6.39655172,6.18564 C6.91431034,6.44004 7.24137931,6.96444 7.24137931,7.53924 L7.24137931,12.11124 C7.24137931,12.44244 6.97103448,12.71124 6.63793103,12.71124 L3.8487931,12.71124 C3.51568966,12.71124 3.24534483,12.44244 3.24534483,12.11124 L3.24534483,5.60124 Z M0.689137931,35.94804 L9.79034483,35.94804 C10.172931,35.94804 10.4855172,35.63724 10.4855172,35.25564 L10.4855172,17.27484 C10.4855172,16.89564 10.1753448,16.58964 9.79034483,16.58964 L9.38965517,16.58964 L9.38965517,13.39644 C9.38965517,13.01724 9.07827586,12.71124 8.69327586,12.71124 L8.63413793,12.71124 L8.63413793,7.43844 C8.63413793,6.40644 8.04637931,5.46444 7.11706897,5.00844 L2.86034483,2.91324 C2.64431034,2.80644 2.38844828,2.81724 2.18448276,2.94204 C1.97810345,3.06684 1.85258621,3.28764 1.85258621,3.52524 L1.85258621,12.71124 L1.79344828,12.71124 C1.40844828,12.71124 1.09706897,13.01724 1.09706897,13.39644 L1.09706897,16.58964 L0.69637931,16.58964 C0.31137931,16.58964 0,16.89564 0,17.27484 L0,35.26284 C0,35.64084 0.308965517,35.94804 0.689137931,35.94804 Z" id="Fill-1"></path>
            <path d="M11.593931,33.81324 L28.1815172,33.81324 C30.7304828,33.81324 33.0911724,32.35284 34.1978966,30.09204 L34.8363448,28.78404 C34.9401379,28.57164 34.9256552,28.32204 34.798931,28.12284 C34.671,27.92244 34.448931,27.80244 34.2087586,27.80244 L11.593931,27.80244 C11.208931,27.80244 10.8975517,28.10844 10.8975517,28.48764 C10.8975517,28.86564 11.208931,29.17284 11.593931,29.17284 L33.1008276,29.17284 L32.9415172,29.49804 C32.0677241,31.28724 30.1994483,32.44284 28.1815172,32.44284 L11.593931,32.44284 C11.208931,32.44284 10.8975517,32.75004 10.8975517,33.12804 C10.8975517,33.50604 11.208931,33.81324 11.593931,33.81324" id="Fill-3"></path>
            <path d="M9.98513793,5.03904 C12.5811724,2.67384 15.9616897,1.37064 19.5027241,1.37064 C27.228069,1.37064 33.5123793,7.55664 33.5123793,15.15984 C33.5123793,19.25904 31.6778966,23.11824 28.4772069,25.74864 C28.1827241,25.99224 28.1428966,26.42424 28.3891034,26.71464 C28.5266897,26.87664 28.7246207,26.96064 28.9237586,26.96064 C29.0818621,26.96064 29.2399655,26.90784 29.3703103,26.80104 C32.8884138,23.90904 34.9051379,19.66584 34.9051379,15.15984 C34.9051379,6.80064 27.9956552,0.00024 19.5027241,0.00024 C15.6092759,0.00024 11.8944483,1.43304 9.04013793,4.03344 C8.75651724,4.29024 8.74082759,4.72344 9.00272414,5.00184 C9.2622069,5.27904 9.70393103,5.29584 9.98513793,5.03904" id="Fill-4"></path>
            <path d="M10.5438103,8.68296 C12.6329483,5.88816 15.9820862,4.22016 19.5026034,4.22016 C25.6312241,4.22016 30.6169138,9.12816 30.6169138,15.15936 C30.6169138,21.19176 25.6312241,26.09976 19.5026034,26.09976 C16.7472586,26.09976 14.1029483,25.10016 12.0596724,23.28456 C11.7748448,23.03256 11.3343276,23.05416 11.0760517,23.33496 C10.8189828,23.61576 10.8419138,24.04896 11.1267414,24.30336 C13.4270862,26.34456 16.4020862,27.47016 19.5026034,27.47016 C26.3988103,27.47016 32.0096724,21.94776 32.0096724,15.15936 C32.0096724,8.37216 26.3988103,2.84976 19.5026034,2.84976 C15.541569,2.84976 11.7736379,4.72656 9.42260345,7.87056 C9.1945,8.17536 9.26087931,8.60496 9.56984483,8.82936 C9.88001724,9.05256 10.3169138,8.98776 10.5438103,8.68296" id="Fill-5"></path>
            <path d="M14.9482586,23.43684 C15.1256724,23.43684 15.3042931,23.36964 15.4394655,23.23644 L28.1468793,10.73124 C28.418431,10.46244 28.418431,10.02924 28.1468793,9.76164 C27.8753276,9.49404 27.4348103,9.49404 27.1620517,9.76164 L14.4558448,22.26684 C14.1830862,22.53444 14.1830862,22.96884 14.4558448,23.23644 C14.5910172,23.36964 14.7696379,23.43684 14.9482586,23.43684" id="Fill-6"></path>
            <path d="M18.8164828,23.5218 C18.9951034,23.5218 19.1737241,23.4546 19.3088966,23.3214 L28.8494138,13.9314 C29.1209655,13.6638 29.1209655,13.2294 28.8494138,12.963 C28.5778621,12.6954 28.1373448,12.6954 27.8645862,12.963 L18.3252759,22.3518 C18.0525172,22.6194 18.0525172,23.0526 18.3252759,23.3214 C18.4604483,23.4546 18.639069,23.5218 18.8164828,23.5218" id="Fill-7"></path>
        </g>
    </g>
</svg>