<?xml version="1.0" encoding="UTF-8"?>
<svg width="60px" height="60px" viewBox="0 0 60 60" version="1.1" xmlns="http://www.w3.org/2000/svg" xmlns:xlink="http://www.w3.org/1999/xlink">
    <!-- Generator: Sketch 52.2 (67145) - http://www.bohemiancoding.com/sketch -->
    <title>Slice</title>
    <desc>Created with Sketch.</desc>
    <g id="Page-1" stroke="none" stroke-width="1" fill="none" fill-rule="evenodd">
        <rect id="Rectangle" x="0" y="0" width="60" height="60"></rect>
        <g id="Group" fill="#FFFFFF" fill-rule="nonzero">
            <path d="M47.0526582,22.6055483 L47.0526582,17.9579593 C47.0526582,16.8781784 46.1772324,16 45.1008359,16 L13.9518223,16 C12.8754258,16 12,16.8785408 12,17.9582493 L12,34.2326037 L12,36.8385041 C12,37.9150953 12.8738359,38.7907364 13.9479922,38.7907364 L25.6315371,38.7907364 L25.6315371,42.0465352 L22.3859434,42.0465352 L22.3859434,43.3488692 L26.2806992,43.3488692 L32.771959,43.3488692 L36.0175527,43.3488692 L36.0175527,42.0465352 L33.4210488,42.0465352 L33.4210488,38.7907364 L37.3158047,38.7907364 L37.3158047,41.395042 C37.3158047,42.8315603 38.4831836,44 39.9183066,44 L46.397498,44 C47.8326934,44 49,42.8315603 49,41.395042 L49,25.116628 C49,23.9079548 48.169668,22.8982744 47.0526582,22.6055483 Z M32.1227969,42.0465352 L26.9297891,42.0465352 L26.9297891,38.7907364 L32.1227969,38.7907364 L32.1227969,42.0465352 Z M37.3158047,37.4884024 L32.771959,37.4884024 L26.2806992,37.4884024 L13.9479922,37.4884024 C13.5898438,37.4884024 13.298252,37.1968362 13.298252,36.8385041 L13.298252,34.8837344 L37.3158047,34.8837344 L37.3158047,37.4884024 Z M37.3158047,25.116628 L37.3158047,33.5814004 L13.298252,33.5814004 L13.298252,17.9582493 C13.298252,17.5964375 13.5914336,17.302334 13.9518223,17.302334 L45.1008359,17.302334 C45.4612246,17.302334 45.7544063,17.5964375 45.7544063,17.9579593 L45.7544063,22.5116701 L39.9183066,22.5116701 C38.4831113,22.5116701 37.3158047,23.6801098 37.3158047,25.116628 Z M47.701748,41.395042 C47.701748,42.1133011 47.1166133,42.697666 46.397498,42.697666 L39.9183066,42.697666 C39.1991191,42.697666 38.6140566,42.1133011 38.6140566,41.395042 L38.6140566,38.1395332 L38.6140566,34.2325312 L38.6140566,25.1165556 C38.6140566,24.3982964 39.1991914,23.8139316 39.9183066,23.8139316 L46.397498,23.8139316 C47.1166855,23.8139316 47.701748,24.3982964 47.701748,25.1165556 L47.701748,41.395042 Z" id="Shape" stroke="#FFFFFF" stroke-width="0.2"></path>
            <circle id="Oval" cx="43" cy="40" r="1"></circle>
            <rect id="Rectangle-path" x="41" y="25" width="4" height="1" rx="0.5"></rect>
        </g>
    </g>
</svg>