<?xml version="1.0" encoding="utf-8"?>
<!-- Generator: Adobe Illustrator 21.0.0, SVG Export Plug-In . SVG Version: 6.00 Build 0)  -->
<svg version="1.1" id="Layer_1" xmlns="http://www.w3.org/2000/svg" xmlns:xlink="http://www.w3.org/1999/xlink" x="0px" y="0px"
	 viewBox="0 0 71 90" style="enable-background:new 0 0 71 90;" xml:space="preserve">
<style type="text/css">
	.st0{filter:url(#filter-1);}
	.st1{fill:#FFFFFF;}
</style>
<filter  filterUnits="objectBoundingBox" height="132.4%" id="filter-1" width="103.8%" x="-1.9%" y="-16.5%">
	<feOffset  dx="0" dy="0" in="SourceAlpha" result="shadowOffsetOuter1"></feOffset>
	<feGaussianBlur  in="shadowOffsetOuter1" result="shadowBlurOuter1" stdDeviation="9"></feGaussianBlur>
	
		<feColorMatrix  in="shadowBlurOuter1" result="shadowMatrixOuter1" type="matrix" values="0 0 0 0 0   0 0 0 0 0   0 0 0 0 0  0 0 0 0.2 0">
		</feColorMatrix>
	<feMerge>
		<feMergeNode  in="shadowMatrixOuter1"></feMergeNode>
		<feMergeNode  in="SourceGraphic"></feMergeNode>
	</feMerge>
</filter>
<title>Fill 1</title>
<desc>Created with Sketch.</desc>
<g id="Mockups">
	<g id="_x31__x5F_Carriage---Homepage" transform="translate(-588.000000, -573.000000)">
		<g id="Group-16">
			<g id="block:multi-vertical" transform="translate(0.000000, 550.000000)" class="st0">
				<g id="Group-10_1_" transform="translate(366.031250, 0.028799)">
					<g id="Group-5_1_" transform="translate(36.718750, 22.397567)">
						<g id="Group-4-Copy_1_" transform="translate(176.036436, 0.000000)">
							<g id="Group-3_1_">
								<g id="flowers_icon_color_1_" transform="translate(27.019651, 16.783954)">
									<path id="Fill-1_1_" class="st1" d="M34.1,18.5c-0.4,2.4-2.5,4.1-4.8,4.1c-0.3,0-0.6,0-0.9-0.1c-2.7-0.5-4.5-3-4-5.7
										c0.2-1.3,1-2.5,2.2-3.3l0.3-0.2l1.6,4.4c0.1,0.3,0.3,0.5,0.6,0.5c0.3,0,0.6-0.1,0.8-0.3l3-3.6l0.2,0.3
										C34,15.7,34.3,17.1,34.1,18.5L34.1,18.5z M17.6,39.9l-2-0.4l4.3-10c0.2-0.4,0-0.9-0.4-1.1c-0.2-0.1-0.4-0.1-0.6,0
										c-0.2,0.1-0.4,0.2-0.5,0.4L13.6,40l-0.6-12c0-0.2-0.1-0.4-0.3-0.6c-0.2-0.1-0.4-0.2-0.6-0.2c-0.5,0-0.8,0.4-0.8,0.9
										l0.6,10.9l-2-0.4L2.8,19.7l28,4.9L17.6,39.9z M15.8,54.5l-9.4-1.6l3.4-12.7l2.8,0.5l-1.3,7.6c0,0.2,0,0.4,0.1,0.6
										c0.1,0.2,0.3,0.3,0.5,0.3c0.4,0.1,0.9-0.2,1-0.7l1.3-7.6l2.8,0.5L15.8,54.5z M1.7,12.8c0.2-1.3,1-2.5,2.2-3.3l0.3-0.2
										l1.6,4.4c0.1,0.3,0.3,0.5,0.6,0.5c0.3,0.1,0.6-0.1,0.8-0.3l3-3.6l0.2,0.3c0.8,1.1,1.2,2.5,0.9,3.8
										c-0.4,2.4-2.5,4.1-4.8,4.1c-0.3,0-0.6,0-0.9-0.1C3,18,1.3,15.5,1.7,12.8L1.7,12.8z M12.7,19.7l-2.6-0.5l0.5-0.4
										c0.3-0.2,0.6-0.5,0.8-0.7l0.3-0.3l0.2,0.4c0.1,0.3,0.3,0.7,0.5,1L12.7,19.7z M8.9,5.4c0.2-1.3,1-2.5,2.2-3.3l0.3-0.2
										L13,6.4c0.1,0.3,0.3,0.5,0.6,0.5c0.3,0.1,0.6-0.1,0.8-0.3l3-3.6l0.2,0.3c0.8,1.1,1.2,2.5,0.9,3.8c-0.2,1-0.7,2-1.4,2.7
										L16.9,10l-0.2-0.3c-0.2-0.3-0.6-0.4-1-0.3c-1,0.4-1.9,0.9-2.7,1.7l-0.3,0.3l-0.2-0.4c-0.4-1-1.1-1.9-1.9-2.5
										c-0.3-0.2-0.7-0.2-1,0L9.5,8.7L9.3,8.4C8.8,7.5,8.7,6.4,8.9,5.4L8.9,5.4z M19,10.8c0.2,0.4,0.4,0.7,0.6,1.1l0.1,0.2
										l-1.5,1.8l-0.8-2.2l0.2-0.1c0.3-0.2,0.7-0.5,0.9-0.8l0.3-0.3L19,10.8z M21.6,12.4l0.2,0.3c0.8,1.1,1.2,2.5,0.9,3.8
										c-0.4,2.4-2.5,4.1-4.8,4.1c-0.3,0-0.6,0-0.9-0.1c-2.7-0.5-4.5-3-4-5.7c0.2-1.3,1-2.5,2.2-3.3l0.3-0.2l1.6,4.4
										c0.1,0.3,0.3,0.5,0.6,0.5c0.3,0.1,0.6-0.1,0.8-0.3L21.6,12.4z M24,21.7l-2.6-0.5l0.5-0.4c0.3-0.2,0.6-0.5,0.8-0.7l0.3-0.3
										l0.2,0.4c0.1,0.3,0.3,0.7,0.5,1L24,21.7z M20.2,7.4c0.2-1.3,1-2.5,2.2-3.3l0.3-0.2l1.6,4.4c0.1,0.3,0.3,0.5,0.6,0.5
										c0.3,0.1,0.6-0.1,0.8-0.3l3-3.6L29,5.3c0.8,1.1,1.2,2.5,0.9,3.8c-0.2,1-0.7,2-1.4,2.7L28.2,12L28,11.7
										c-0.2-0.3-0.6-0.4-1-0.3c-1,0.4-1.9,0.9-2.7,1.7l-0.3,0.3l-0.2-0.4c-0.4-1-1.1-1.9-1.9-2.5c-0.3-0.2-0.7-0.2-1,0l-0.3,0.2
										l-0.1-0.3C20.2,9.5,20,8.4,20.2,7.4L20.2,7.4z M33.4,12.5c-0.3-0.3-0.9-0.2-1.2,0.1l-2.7,3.2l-0.8-2.2l0.2-0.1
										c1.4-1,2.3-2.5,2.6-4.2C31.9,7,31,4.6,29.2,3.1c-0.3-0.3-0.9-0.2-1.2,0.1l-2.7,3.2l-1.4-3.9c-0.2-0.4-0.6-0.6-1-0.5
										c-1,0.3-1.9,0.9-2.7,1.7l-0.3,0.3l-0.2-0.4c-0.4-1-1.1-1.9-1.9-2.5c-0.3-0.3-0.9-0.2-1.2,0.1L14,4.4l-1.4-3.9
										c-0.2-0.4-0.6-0.6-1-0.5C9.3,0.8,7.7,2.8,7.3,5.1C7,6.8,7.3,8.5,8.3,9.9l0.1,0.2l-1.5,1.8L5.5,8C5.4,7.6,5,7.4,4.7,7.4
										c-0.1,0-0.2,0-0.3,0c-2.3,0.8-3.9,2.7-4.3,5.1c-0.3,1.7,0.1,3.5,1.1,4.9l0.2,0.3l-0.3,0.1C1,17.9,0.9,18,0.8,18.1
										c-0.2,0.2-0.2,0.5-0.1,0.8l7.7,20.4l0,0.1L4.6,53.4c-0.1,0.2,0,0.5,0.1,0.7c0.1,0.2,0.3,0.3,0.6,0.4l11.1,2
										c0.2,0,0.5,0,0.6-0.2c0.2-0.1,0.3-0.4,0.3-0.6l1.3-14.5l0.1-0.1l14.2-16.5c0.2-0.2,0.3-0.5,0.2-0.8c0-0.1-0.1-0.2-0.2-0.3
										l-0.2-0.2L33,23c1.5-1,2.4-2.5,2.7-4.2C36.1,16.4,35.2,14,33.4,12.5L33.4,12.5z"/>
								</g>
							</g>
						</g>
					</g>
				</g>
			</g>
		</g>
	</g>
</g>
</svg>
