<?xml version="1.0" encoding="utf-8"?>
<!-- Generator: Adobe Illustrator 21.0.0, SVG Export Plug-In . SVG Version: 6.00 Build 0)  -->
<svg version="1.1" id="Layer_1" xmlns="http://www.w3.org/2000/svg" xmlns:xlink="http://www.w3.org/1999/xlink" x="0px" y="0px"
	 viewBox="0 0 71 90" style="enable-background:new 0 0 71 90;" xml:space="preserve">
<style type="text/css">
	.st0{fill:#FFFFFF;}
</style>
<title>Fill 1</title>
<desc>Created with Sketch.</desc>
<g id="Page-1">
	<g id="groceries">
		<path id="Shape" class="st0" d="M42.9,41.6c0.1,0,0.2,0,0.3,0c0.4,0,0.7-0.2,0.8-0.6c0.3-0.8,1.2-1.2,2-0.9c1.7,0.6,3.6-0.3,4.2-2
			c0.2-0.4-0.1-0.9-0.6-1.1c-0.5-0.1-1,0.1-1.1,0.5c-0.3,0.8-1.2,1.2-2,0.9c-1.7-0.6-3.6,0.3-4.2,2C42.2,40.9,42.4,41.4,42.9,41.6z"
			/>
		<path id="Shape_1_" class="st0" d="M45.2,34.7c0.1,0,0.2,0,0.3,0c0.4,0,0.7-0.2,0.8-0.6c0.1-0.4,0.4-0.7,0.8-0.8
			c0.4-0.2,0.8-0.2,1.2-0.1c1.7,0.6,3.6-0.3,4.2-2c0.2-0.4-0.1-0.9-0.6-1.1c-0.5-0.1-1,0.1-1.1,0.5c-0.3,0.8-1.2,1.2-2,0.9
			c-0.8-0.3-1.7-0.2-2.5,0.2c-0.8,0.4-1.4,1-1.7,1.8C44.5,34.1,44.7,34.6,45.2,34.7z"/>
		<path id="Shape_2_" class="st0" d="M47.4,29.1c0.1,0,0.2,0,0.3,0c0.4,0,0.7-0.2,0.8-0.6c0.2-0.6,0.8-1,1.4-0.8
			c0.7,0.3,1.5,0.2,2.2-0.2c0.7-0.4,1.2-1,1.4-1.8c0.2-0.5-0.1-1-0.5-1.2c-0.5-0.2-0.9,0.1-1.1,0.6c-0.1,0.3-0.3,0.6-0.6,0.7
			c-0.3,0.1-0.6,0.2-0.9,0.1c-1.5-0.5-3.1,0.3-3.6,1.9C46.7,28.4,47,28.9,47.4,29.1z"/>
		<path id="Shape_3_" class="st0" d="M53.5,42.1c-0.2-0.1-0.3-0.2-0.5-0.2c1.8-5.9,2.8-11.7,2.9-17.3c0-1.7-0.8-4.1-2.5-5.1
			c-0.8-0.5-2.1-0.9-3.9,0c-2.7,1.4-4.7,5.6-6.2,8.9c-0.1,0.2-0.2,0.4-0.3,0.6c-0.3-1.6-1.4-3-2.9-3.7c-0.4-1.7-1.7-3-3.4-3.4
			c0-0.1,0-0.2-0.1-0.3c-0.3-1.2-1.4-2.1-2.6-2.2c-0.7-0.1-1.4,0.1-1.9,0.4c-0.5-0.3-1-0.4-1.6-0.4c-1.6,0-2.9,1.1-3.3,2.6
			c-1.7,0.5-3,2.1-3,3.9c-2,0.5-3.4,2.3-3.4,4.5c0,0.6,0.1,1.1,0.3,1.7c-0.5,0.6-0.8,1.4-0.8,2.3c0,0.5,0.1,1,0.3,1.4
			c-0.9-1-2.2-1.8-3.6-1.8c-0.5,0-0.9,0.4-0.9,0.9c0,0.5,0.4,0.9,0.9,0.9c0,0,0.1,0,0.1,0c0.9,0,1.6,0.6,2.2,1.2
			c-1.4,0.4-3.2,1.1-4,2.6C15,40.6,15,41.7,15.3,43c-0.2,0.3-0.2,0.6-0.2,0.9l1.5,22.2c0.1,2.8,2.4,5,5.2,5h25.5c2.8,0,5-2.2,5.2-5
			l1.6-23c0,0,0,0,0,0C54.1,42.7,53.9,42.3,53.5,42.1z M43.8,31.5c0.4-0.7,0.8-1.5,1.2-2.4c1.4-2.9,3.2-7,5.4-8.1
			c0.8-0.4,1.5-0.4,2.1,0c1.1,0.7,1.7,2.4,1.6,3.5C54,30,53,35.7,51.2,41.5c-0.1,0.2-0.2,0.6-0.4,1.1l-1.5,0.7c0,0-0.1,0-0.1,0.1
			c-0.4,0.3-0.9,0.4-1.4,0.4c-0.5,0-1-0.1-1.4-0.4L45.6,43c-0.7-0.5-1.6-0.7-2.4-0.7c0,0,0,0,0,0c-0.8,0-1.7,0.2-2.4,0.7l-0.6,0.4
			c-0.4,0.2-0.8,0.3-1.2,0.4c0-0.1,0-0.2,0.1-0.2c0.2-0.9,0.5-1.7,0.8-2.5c0.1-0.3,0.2-0.6,0.3-0.9c0.2-0.7,0.5-1.3,0.7-2
			c0.1-0.3,0.2-0.6,0.3-0.9C42,35.3,42.9,33.4,43.8,31.5z M32.3,33.7c0.1-0.1,0.2-0.3,0.3-0.4c0,0,0,0,0,0c0.1-0.1,0.1-0.2,0.2-0.3
			c0.2-0.4,0.3-0.9,0.2-1.4l3.8-0.8c0,0.1,0.1,0.2,0.1,0.3c0.2,0.4,0.5,0.8,0.9,1c0.1,0.1,0.3,0.2,0.4,0.2c0.1,0.1,0.2,0.1,0.4,0.2
			c0.1,0,0.1,0.1,0.2,0.1c0.1,0.1,0.2,0.1,0.3,0.2c0.1,0.1,0.2,0.1,0.3,0.2c0.1,0.1,0.2,0.1,0.3,0.2c0.1,0.1,0.2,0.1,0.2,0.2
			c0.1,0.1,0.2,0.2,0.3,0.3c0.1,0.2,0.3,0.3,0.4,0.6c-0.4,0.9-0.7,1.7-1.1,2.6c-0.1,0.1-0.1,0.3-0.2,0.4c-1,0.3-2,0.7-3.1,1.6
			c-1.5,1.1-2.6,1.4-4.4,1.1L31,37.5C30.7,35.8,31.5,34.7,32.3,33.7z M36.8,28.1C36.8,28.1,36.8,28.1,36.8,28.1
			c0.2,0,0.4,0.1,0.4,0.3c0,0.1,0,0.2-0.1,0.3c0,0-0.1,0.1-0.2,0.2l-5,1.1c-0.2,0-0.4-0.1-0.4-0.3c0-0.2,0.1-0.4,0.3-0.5l2.7-0.6
			L36.8,28.1z M33.8,42.4c-0.1,0-0.1,0-0.2,0c-0.5,0.1-1,0.2-1.4,0.4L32,42c0.3,0,0.5,0,0.8,0c1.6,0,2.9-0.5,4.3-1.5
			c0.5-0.3,0.9-0.6,1.3-0.8c-0.1,0.2-0.2,0.5-0.2,0.7c-0.1,0.2-0.1,0.3-0.2,0.5c-0.3,0.8-0.5,1.6-0.8,2.5L36.6,43
			c-0.7-0.5-1.6-0.7-2.4-0.7c0,0,0,0,0,0C34,42.3,33.9,42.3,33.8,42.4z M23,32.9l0.6-0.5l-0.4-0.7c-0.2-0.4-0.4-0.9-0.4-1.4
			c0-1.5,1.2-2.7,2.6-2.8l1.1,0l-0.3-1.1c0-0.2-0.1-0.4-0.1-0.5c0-1.2,0.9-2.2,2.1-2.3l0.8-0.1v-0.9c0-0.8,0.7-1.5,1.5-1.5
			c0.5,0,0.8,0.2,1,0.4l0.6,0.6l0.6-0.6c0.3-0.3,0.7-0.4,1.1-0.4c0.5,0.1,0.9,0.4,1.1,0.9c0,0.2,0.1,0.3,0,0.5l-0.1,1h1
			c1.3,0,2.4,1,2.5,2.3l0,0.6l0.6,0.2c1.4,0.5,2.4,1.9,2.3,3.4c0,0.6-0.2,1.3-0.6,1.8c-0.6-0.5-1.3-0.9-1.8-1.2
			c-0.1-0.1-0.3-0.1-0.4-0.2c0,0-0.1-0.1-0.1-0.2c0-0.1,0-0.3,0.1-0.4c0.4-0.5,0.6-1.1,0.4-1.7l-0.1-0.5c-0.1-0.5-0.4-0.9-0.8-1.2
			c-0.4-0.3-1-0.4-1.5-0.3l-0.2,0.1c0,0,0,0,0,0l-2.7,0.6l-2.6,0.6c-0.5,0.1-0.9,0.4-1.2,0.9c-0.3,0.4-0.4,1-0.3,1.5l0.1,0.2v0
			c0,0,0,0,0,0l0.1,0.2c0.1,0.6,0.6,1.1,1.1,1.4c0.1,0.1,0.3,0.2,0.3,0.3c0,0.1,0,0.1,0,0.2c0,0,0,0,0,0c-0.1,0.1-0.2,0.2-0.3,0.4
			c-0.1,0.1-0.2,0.3-0.3,0.4c0,0-0.1,0.1-0.1,0.1c-0.1,0.1-0.2,0.2-0.2,0.3c0,0.1-0.1,0.1-0.1,0.2c-0.1,0.1-0.1,0.2-0.2,0.3
			c0,0.1-0.1,0.1-0.1,0.2c-0.1,0.1-0.1,0.3-0.2,0.4c0,0.1-0.1,0.1-0.1,0.2c-0.1,0.2-0.2,0.4-0.2,0.6c0,0,0,0.1,0,0.1
			c0,0.2-0.1,0.4-0.1,0.6c0,0.1,0,0.2,0,0.2c0,0.1,0,0.2,0,0.3c0,0,0,0,0,0c0,0,0,0,0,0c-0.2-0.2-0.3-0.4-0.5-0.6
			c0-0.1-0.1-0.1-0.2-0.2c-0.1-0.1-0.3-0.3-0.4-0.4c0,0-0.1-0.1-0.1-0.1c-0.2-0.2-0.3-0.3-0.5-0.4c0,0-0.1-0.1-0.1-0.1
			c-0.1-0.1-0.3-0.2-0.4-0.2c-0.1,0-0.1-0.1-0.2-0.1c-0.1-0.1-0.3-0.1-0.4-0.2c0,0-0.1,0-0.1-0.1c-0.1,0-0.3-0.1-0.4-0.1
			c0,0,0,0-0.1,0c0,0-0.1,0-0.1,0c-0.1,0-0.2,0-0.3,0c-0.1,0-0.1,0-0.2,0c0,0,0,0-0.1,0c-0.1,0-0.3,0-0.4,0c-0.1,0-0.1,0-0.2,0
			c-0.2,0-0.4,0.1-0.5,0.1c0,0-0.1,0-0.1,0c-0.5,0.2-0.9,0.4-1.3,0.6c-0.1-0.2-0.1-0.4-0.1-0.7C22.3,33.7,22.5,33.2,23,32.9z
			 M17.1,40.5c0.4-0.7,1.3-1.3,2.9-1.8c0.8-0.2,1.5-0.6,2-1.2c0.3-0.3,0.5-0.5,0.7-0.7c0.7-0.6,1.4-0.9,1.9-1c0,0,0,0,0,0
			c0.2,0,0.4,0,0.5,0c0,0,0.1,0,0.1,0c0.1,0,0.2,0,0.3,0.1c0.1,0,0.1,0.1,0.2,0.1c0.1,0,0.2,0.1,0.2,0.1c0.1,0,0.1,0.1,0.2,0.1
			c0.1,0.1,0.1,0.1,0.2,0.2c0.1,0.1,0.1,0.1,0.2,0.2c0.1,0.1,0.1,0.1,0.2,0.2c0.1,0.1,0.2,0.2,0.2,0.3c0.1,0.1,0.1,0.1,0.2,0.2
			c0.1,0.1,0.2,0.2,0.3,0.3c0.1,0.1,0.1,0.1,0.2,0.2c0.1,0.1,0.2,0.3,0.3,0.4c0,0.1,0.1,0.1,0.1,0.2c0.1,0.2,0.3,0.5,0.4,0.7
			c0.7,1.2,0.9,3,0.6,4.5c0,0-0.1,0-0.1,0c-0.3-0.1-0.7-0.2-1-0.4L27.5,43c-0.7-0.5-1.6-0.7-2.4-0.7c0,0,0,0,0,0
			c-0.8,0-1.7,0.2-2.4,0.7l-0.3,0.2c-0.5,0.3-1.2,0.5-1.8,0.5c-0.6,0-1.2-0.2-1.8-0.5l-1.2-0.7c0,0,0,0,0,0
			c-0.2-0.1-0.3-0.2-0.5-0.2C16.8,41.5,16.9,41,17.1,40.5z M50.6,66c-0.1,1.8-1.6,3.2-3.4,3.2H21.8c-1.8,0-3.3-1.4-3.4-3.2
			l-1.5-21.7l0.8,0.5c0.9,0.5,1.8,0.8,2.8,0.8c1,0,1.9-0.2,2.8-0.8l0.3-0.2c0.4-0.3,0.9-0.4,1.4-0.4c0.5,0,1,0.1,1.4,0.4l0.6,0.4
			c0.8,0.5,1.7,0.7,2.7,0.7c0.1,0,0.2,0,0.2,0c0,0,0,0,0,0c0.6-0.1,1.2-0.3,1.8-0.6c0.1,0,0.1,0,0.2,0l0.6-0.4
			c0.4-0.3,0.9-0.4,1.4-0.4c0.5,0,1,0.1,1.4,0.4l0.6,0.4c0.7,0.4,1.5,0.6,2.2,0.7c0,0,0,0,0,0c0.3,0,0.5,0,0.8,0
			c0.2,0,0.3-0.1,0.4-0.1c0.1,0,0.1,0,0.2-0.1c0.4-0.1,0.8-0.3,1.2-0.5l0,0l0.6-0.4c0.4-0.3,0.9-0.4,1.4-0.4c0.5,0,1,0.1,1.4,0.4
			l0.6,0.4c0.8,0.5,1.6,0.7,2.4,0.7c0,0,0,0,0,0c0.8,0,1.6-0.2,2.4-0.6l1.8-0.8c0,0,0.1-0.1,0.1-0.1l0.1-0.1L50.6,66z"/>
		<path id="Shape_4_" class="st0" d="M20.5,58.6h6.2c0.5,0,0.9-0.5,0.9-1.1c0-0.6-0.4-1.1-0.9-1.1h-6.2c-0.5,0-0.9,0.5-0.9,1.1
			C19.6,58.1,20,58.6,20.5,58.6z"/>
		<path id="Shape_5_" class="st0" d="M20.4,62h7.4c0.5,0,0.8-0.5,0.8-1.1s-0.4-1.1-0.8-1.1h-7.4c-0.5,0-0.8,0.5-0.8,1.1
			S20,62,20.4,62z"/>
		<path id="Shape_6_" class="st0" d="M30.1,64.3h-9.6c-0.5,0-0.9,0.5-0.9,1.1s0.4,1.1,0.9,1.1h9.6c0.5,0,0.9-0.5,0.9-1.1
			S30.6,64.3,30.1,64.3z"/>
		<path id="Shape_7_" class="st0" d="M35.8,64.3h-1.7c-0.5,0-0.9,0.5-0.9,1.1s0.4,1.1,0.9,1.1h1.7c0.5,0,0.9-0.5,0.9-1.1
			S36.3,64.3,35.8,64.3z"/>
	</g>
</g>
</svg>
