<?xml version="1.0" encoding="utf-8"?>
<!-- Generator: Adobe Illustrator 21.0.0, SVG Export Plug-In . SVG Version: 6.00 Build 0)  -->
<svg version="1.1" id="Layer_1" xmlns="http://www.w3.org/2000/svg" xmlns:xlink="http://www.w3.org/1999/xlink" x="0px" y="0px"
	 viewBox="0 0 88 75" style="enable-background:new 0 0 88 75;" xml:space="preserve">
<style type="text/css">
	.st0{filter:url(#filter-1);}
	.st1{fill:#FFFFFF;}
</style>
<filter  filterUnits="objectBoundingBox" height="132.4%" id="filter-1" width="103.8%" x="-1.9%" y="-16.5%">
	<feOffset  dx="0" dy="0" in="SourceAlpha" result="shadowOffsetOuter1"></feOffset>
	<feGaussianBlur  in="shadowOffsetOuter1" result="shadowBlurOuter1" stdDeviation="9"></feGaussianBlur>
	
		<feColorMatrix  in="shadowBlurOuter1" result="shadowMatrixOuter1" type="matrix" values="0 0 0 0 0   0 0 0 0 0   0 0 0 0 0  0 0 0 0.2 0">
		</feColorMatrix>
	<feMerge>
		<feMergeNode  in="shadowMatrixOuter1"></feMergeNode>
		<feMergeNode  in="SourceGraphic"></feMergeNode>
	</feMerge>
</filter>
<title>restaurant_icon_white</title>
<desc>Created with Sketch.</desc>
<g id="Mockups">
	<g id="_x31__x5F_Carriage---Homepage" transform="translate(-406.000000, -580.000000)">
		<g id="Group-16">
			<g id="block:multi-vertical" transform="translate(0.000000, 550.000000)" class="st0">
				<g id="Group-10_1_" transform="translate(366.031250, 0.028799)">
					<g id="Group-5_1_" transform="translate(36.718750, 22.397567)">
						<g id="Group-4_1_">
							<g id="Group-3_1_" transform="translate(2.379913, 0.000000)">
								<g id="restaurant_icon_white_1_" transform="translate(19.138919, 23.497535)">
									<path id="Shape_11_" class="st1" d="M26.3,13.1c-5.7,0-10.5,4.7-10.5,10.3s4.8,10.3,10.5,10.3S36.8,29,36.8,23.4
										S31.9,13.1,26.3,13.1z M26.3,32c-4.7,0-8.8-4-8.8-8.6s4-8.6,8.8-8.6s8.8,4,8.8,8.6S31,32,26.3,32z"/>
									<path id="Shape_10_" class="st1" d="M49.9,20.4V1.1c0-0.3-0.2-0.6-0.5-0.8s-0.7-0.1-1,0.2c-2.5,2.4-3.8,5.6-3.8,8.9v5.2
										c0,2,0.4,4,1.3,5.7l0.2,0.4c-0.9,0.6-1.5,1.7-1.5,2.8v15.5c0,1.9,1.6,3.4,3.5,3.4c1.9,0,3.5-1.5,3.5-3.4V23.4
										C51.6,22.2,50.9,21,49.9,20.4z M47.8,20l-0.3-0.5c-0.7-1.5-1.1-3.2-1.1-4.9V9.3c0-2.1,0.6-4.1,1.8-5.8V20H47.8L47.8,20z
										 M49.9,38.9c0,0.9-0.8,1.7-1.8,1.7c-1,0-1.8-0.8-1.8-1.7V23.4c0-0.9,0.8-1.7,1.8-1.7c1,0,1.8,0.8,1.8,1.7V38.9z"/>
									<path id="Shape_9_" class="st1" d="M7.9,1.1C7.4,1.1,7,1.4,7,1.9v9.5c0,1.2-0.7,2.1-1.8,2.4V1.9c0-0.5-0.3-0.9-0.9-0.9
										S3.5,1.4,3.5,1.9v11.9c-1-0.3-1.8-1.3-1.8-2.4V1.9c0-0.5-0.3-0.9-0.9-0.9S0,1.4,0,1.9v9.5c0,2.1,1.5,3.8,3.5,4.2v4.5
										c-1.5,0.4-2.6,1.7-2.6,3.3v15.5c0,1.9,1.6,3.4,3.5,3.4s3.5-1.5,3.5-3.4V23.4c0-1.6-1.1-2.9-2.6-3.3v-4.5
										c2-0.4,3.5-2.1,3.5-4.2V1.9C8.8,1.4,8.4,1.1,7.9,1.1z M6.1,23.4v15.5c0,0.9-0.8,1.7-1.8,1.7s-1.8-0.8-1.8-1.7V23.4
										c0-0.9,0.8-1.7,1.8-1.7S6.1,22.5,6.1,23.4z"/>
									<path id="Shape_8_" class="st1" d="M3.5,26.9c0,0.5,0.3,0.9,0.9,0.9s0.9-0.3,0.9-0.9S4.9,26,4.4,26S3.5,26.3,3.5,26.9z"/>
									<path id="Shape_7_" class="st1" d="M48.1,26c-0.5,0-0.9,0.3-0.9,0.9s0.3,0.9,0.9,0.9c0.5,0,0.9-0.3,0.9-0.9
										S48.7,26,48.1,26z"/>
									<path id="Shape_6_" class="st1" d="M26.3,7.1c-9.2,0-16.6,7.3-16.6,16.3s7.4,16.3,16.6,16.3s16.6-7.3,16.6-16.3
										S35.4,7.1,26.3,7.1z M26.3,38c-8.2,0-14.9-6.5-14.9-14.6S18,8.8,26.3,8.8s14.9,6.5,14.9,14.6S34.5,38,26.3,38z"/>
								</g>
							</g>
						</g>
					</g>
				</g>
			</g>
		</g>
	</g>
</g>
</svg>
