<?xml version="1.0" encoding="UTF-8"?>
<svg width="60px" height="60px" viewBox="0 0 60 60" version="1.1" xmlns="http://www.w3.org/2000/svg" xmlns:xlink="http://www.w3.org/1999/xlink">
    <!-- Generator: Sketch 49.1 (51147) - http://www.bohemiancoding.com/sketch -->
    <title>web_supplements_icon_white</title>
    <desc>Created with Sketch.</desc>
    <defs></defs>
    <g id="web_supplements_icon_white" stroke="none" stroke-width="1" fill="none" fill-rule="evenodd">
        <g id="Page-1" transform="translate(8.000000, 14.000000)">
            <path d="M4.0556,13.5258 L4.4646,11.2048 C4.5216,10.8838 4.8616,10.6768 5.2246,10.7408 L15.0956,12.4818 C15.4576,12.5458 15.7076,12.8568 15.6506,13.1778 L15.2416,15.4978 L4.0556,13.5258 Z M1.8237,15.5395 L2.1307,13.7985 C2.1867,13.4775 2.5267,13.2705 2.8907,13.3345 L16.7087,15.7715 C17.0717,15.8355 17.3207,16.1465 17.2637,16.4675 L16.9577,18.2075 C16.9007,18.5285 16.5597,18.7365 16.1977,18.6715 L2.3797,16.2355 C2.0157,16.1715 1.7667,15.8605 1.8237,15.5395 Z" id="Stroke-1" stroke="#FFFFFF" stroke-linecap="round" stroke-linejoin="round"></path>
            <path d="M1.29724977,29.0048 L1.70624977,26.6848 L12.8922498,28.6558 L12.4832498,30.9778 C12.4262498,31.2978 12.0862498,31.5048 11.7232498,31.4418 L1.85324977,29.7008 C1.48924977,29.6368 1.24124977,29.3248 1.29724977,29.0048 Z M0.00814976824,25.3954 L0.315149768,23.6554 C0.371149768,23.3344 0.711149768,23.1264 1.07514977,23.1914 L14.8931498,25.6274 C15.2561498,25.6914 15.5051498,26.0024 15.4481498,26.3244 L15.1411498,28.0644 C15.0851498,28.3844 14.7441498,28.5924 14.3811498,28.5284 L0.564149768,26.0914 C0.199149768,26.0274 -0.0488502318,25.7164 0.00814976824,25.3954 Z" id="Stroke-5" stroke="#FFFFFF" stroke-linecap="round" stroke-linejoin="round"></path>
            <path d="M6.5292,23.5458 L7.5522,17.7438" id="Stroke-9" stroke="#FFFFFF" stroke-linecap="round" stroke-linejoin="round"></path>
            <path d="M10.3578,20.079 L9.6418,24.14" id="Stroke-11" stroke="#FFFFFF" stroke-linecap="square" stroke-linejoin="round"></path>
            <path d="M22.937,32.205 C22.59,31.875 22.302,31.485 22.085,31.054 L20.029,31.054 C19.011,31.054 18.182,30.229 18.182,29.217 L18.182,13.997 C18.182,11.057 19.926,8.385 22.625,7.188 L22.968,7.036 L22.968,5.727 L31.064,5.727 L31.064,4.576 L22.968,4.576 L22.39,4.576 L21.828,4.576 L21.828,1.402 L36.388,1.402 L36.388,4.576 L35.828,4.576 L35.249,4.576 L33.379,4.576 L33.379,5.727 L35.249,5.727 L35.249,7.036 L35.592,7.188 C38.291,8.385 40.035,11.057 40.035,13.997 L40.035,20.33 L41.193,20.33 L41.193,13.997 C41.193,10.729 39.326,7.747 36.406,6.298 L36.406,5.727 C37.037,5.718 37.546,5.205 37.546,4.576 L37.546,1.402 C37.546,0.767 37.027,0.25 36.388,0.25 L21.828,0.25 C21.189,0.25 20.67,0.767 20.67,1.402 L20.67,4.576 C20.67,5.205 21.18,5.719 21.811,5.727 L21.811,6.298 C18.891,7.748 17.024,10.729 17.024,13.997 L17.024,29.217 C17.024,30.864 18.373,32.205 20.029,32.205 L22.937,32.205 Z" id="Fill-13" fill="#FFFFFF"></path>
            <path d="M22.1791,14.3051 L22.1791,17.9131 L20.9151,17.9131 L20.9151,14.3051 C20.9151,12.1561 22.2311,10.2031 24.2681,9.3281 L24.7821,10.4411 C23.2001,11.1201 22.1791,12.6371 22.1791,14.3051 Z" id="Fill-17" fill="#FFFFFF"></path>
            <path d="M25.4916,21.7782 L23.6646,21.7782 L22.7306,21.7782 L22.7306,29.6902 C22.7306,31.3762 24.0886,32.7482 25.7566,32.7482 L32.4016,32.7482 C34.0696,32.7482 35.4286,31.3762 35.4286,29.6902 L35.4286,22.9562 L40.0836,22.9562 L40.0836,29.6902 C40.0836,30.7272 39.2496,31.5702 38.2226,31.5702 L36.1516,31.5702 C35.9346,32.0112 35.6436,32.4102 35.2946,32.7482 L38.2226,32.7482 C39.8916,32.7482 41.2496,31.3762 41.2496,29.6902 L41.2496,22.9562 L44.3826,22.9562 C44.7046,22.9562 44.9656,22.6922 44.9656,22.3672 C44.9656,22.0422 44.7046,21.7782 44.3826,21.7782 L25.4916,21.7782 Z M25.7566,31.5702 C24.7306,31.5702 23.8966,30.7272 23.8966,29.6902 L23.8966,22.9562 L34.2626,22.9562 L34.2626,29.6902 C34.2626,30.7272 33.4276,31.5702 32.4016,31.5702 L25.7566,31.5702 Z" id="Fill-21" fill="#FFFFFF"></path>
            <path d="M29.6996,17.8876 C28.3946,17.8876 27.6016,18.6306 26.5056,19.6586 C26.3036,19.8476 26.0846,20.0536 25.8436,20.2726 L27.4906,20.2726 C28.4456,19.3836 28.9276,19.0116 29.6996,19.0116 C30.5116,19.0116 31.0976,19.4806 31.9426,20.2726 L33.5766,20.2726 C33.3886,20.0986 33.2106,19.9296 33.0406,19.7676 C31.9316,18.7176 31.0576,17.8876 29.6996,17.8876" id="Stroke-27" fill="#FFFFFF"></path>
        </g>
    </g>
</svg>