<?xml version="1.0" encoding="UTF-8"?>
<svg width="50px" height="64px" viewBox="0 0 50 64" version="1.1" xmlns="http://www.w3.org/2000/svg" xmlns:xlink="http://www.w3.org/1999/xlink">
    <!-- Generator: Sketch 46.2 (44496) - http://www.bohemiancoding.com/sketch -->
    <title>Group 4</title>
    <desc>Created with Sketch.</desc>
    <defs>
        <rect id="path-1" x="0" y="0" width="49.9013104" height="31.3226687" rx="4"></rect>
        <rect id="path-3" x="0" y="0" width="49.9013104" height="31.3226687" rx="4"></rect>
    </defs>
    <g id="Page-1" stroke="none" stroke-width="1" fill="none" fill-rule="evenodd">
        <g id="Group-4">
            <g id="cod-copy" transform="translate(0.000000, 32.000000)">
                <g id="Rectangle-22">
                    <g id="path-1-Clipped">
                        <mask id="mask-2" fill="white">
                            <use xlink:href="#path-1"></use>
                        </mask>
                        <g id="path-1"></g>
                        <rect id="path-1" stroke="#2A9EC3" mask="url(#mask-2)" x="0" y="0" width="49.9013104" height="31.3226687" rx="4"></rect>
                    </g>
                </g>
                <polygon id="Fill-1" fill="#2A9EC3" fill-rule="nonzero" points="15.1282142 2.76996951 12.5114905 17.8269259 20.5745565 3.61514743"></polygon>
                <path d="M12.6717531,18.4980601 C12.5561064,18.4394937 12.4765994,18.3422279 12.4411169,18.2323382 L11.9047181,21.3183551 L21.0379535,22.7359527 L12.6717531,18.4980601 Z" id="Fill-2" fill="#2A9EC3" fill-rule="nonzero"></path>
                <polygon id="Fill-5" fill="#2A9EC3" fill-rule="nonzero" points="27.3512074 3.58302901 22.9421801 1.34964015 15.6314742 14.2352922"></polygon>
                <polygon id="Fill-8" fill="#2A9EC3" fill-rule="nonzero" points="20.9255046 21.6558469 14.8225173 15.6613749 13.5429575 17.9164933"></polygon>
                <path d="M33.1278435,15.2923855 C32.9749621,15.4097254 32.4335257,15.8441104 32.292691,15.9730393 L29.1373781,18.8769415 L28.8079605,17.8264706 L37.9372533,9.52907505 L30.362838,2.0888604 L16.0255049,15.1204113 L23.479236,22.4414235 C23.3701602,22.9027119 23.3029187,23.3619307 23.3270118,23.8141134 L19.5836096,23.1245608 C19.452193,23.1015895 19.1258418,23.0378493 19.0187373,23.1117299 C18.9116327,23.1849897 18.8156986,25.2509573 20.5891657,27.5545016 L20.5891657,29.5794933 C20.5891657,29.8286593 20.8024987,30.0304342 21.066208,30.0304342 C21.3299174,30.0304342 21.5434693,29.8286593 21.5434693,29.5794933 L21.5434693,27.4065334 C21.5434693,27.3086467 21.5099581,27.2144851 21.4484113,27.1360517 C20.3878793,25.7979223 20.0794883,24.712891 19.9936294,24.1185346 C19.9936294,24.1185346 24.1003985,24.8002232 24.2123217,24.6936447 C24.3242448,24.5889288 24.2747445,22.8445593 24.5515956,22.093543 C25.1666252,20.4228473 24.9784805,18.5075384 23.8804948,15.2634127 C23.4249171,13.9126594 23.9236432,13.2874679 24.2618219,13.0349906 C24.4648606,12.8808139 25.0185625,12.9526251 25.3166593,13.1721975 C25.8887595,13.5939586 26.8542336,15.1402783 27.2885655,16.1474969 L28.4470029,19.8483581 C28.4945319,19.9996375 28.622225,20.1167704 28.7843055,20.1569184 C28.9435387,20.1949969 29.1170086,20.1527794 29.2370357,20.0437175 L32.0552649,17.4502382 C32.0011651,18.0568043 31.9247244,18.802647 31.8305425,19.4508099 C31.3497768,22.7530881 29.0396918,27.018091 29.0164749,27.0603085 C28.9816494,27.1246695 28.9630321,27.195239 28.9630321,27.267257 L28.9630321,29.4404239 C28.9630321,29.6895899 29.176584,29.8913648 29.4402935,29.8913648 C29.7040027,29.8913648 29.9175548,29.6895899 29.9175548,29.4404239 L29.9175548,27.3756981 C30.2817977,26.6915262 32.30868,22.7847512 32.775647,19.5731165 C32.9786856,18.1739373 33.0969606,16.3989394 33.1017792,16.3240241 C33.1140448,16.1381843 33.250718,15.1982239 33.1278435,15.2923855" id="Fill-10" fill="#2A9EC3" fill-rule="nonzero"></path>
                <polygon id="Fill-13" fill="#FFFFFF" fill-rule="nonzero" points="26.701177 10.0301596 25.988461 10.6737696 26.637878 12.2498898 25.4945536 11.1199507 24.857183 11.6954746 27.8701277 14.6736714 28.5074983 14.0979405 27.4145502 13.017669 27.2454608 12.6319169 29.0993111 13.5633923 29.7614318 12.9657249 27.2921137 11.8299912"></polygon>
                <path d="M30.2338526,11.1868572 C30.2796294,11.2321789 30.3157689,11.2719131 30.3422713,11.3058526 C30.3687737,11.3397922 30.3862958,11.3741456 30.3946189,11.408913 C30.402942,11.4434734 30.4049132,11.4741018 30.4003137,11.5003842 C30.395495,11.5268737 30.379068,11.5591576 30.3508135,11.5972362 C30.3223398,11.6355217 30.291676,11.6713238 30.2581646,11.7046425 C30.2250915,11.7379613 30.1780006,11.7818343 30.1173299,11.8368826 L27.9596882,9.70407075 C28.1066557,9.57348622 28.22734,9.49608745 28.321741,9.47228837 C28.4157038,9.44828233 28.5127331,9.48553307 28.6119526,9.5836267 L30.2338526,11.1868572 Z M28.6007823,8.75624635 C28.440016,8.74424334 28.2735549,8.78170102 28.101399,8.86841247 C27.9290243,8.95553782 27.7378131,9.0939864 27.5277656,9.28375823 L26.8693683,9.87832144 L29.8823132,12.8565182 L30.5334825,12.2681634 C30.6631469,12.1512375 30.7704705,12.04052 30.8561102,11.935804 C30.941093,11.8315019 31.0074583,11.7325806 31.0547683,11.6392467 C31.1020783,11.5457059 31.1292377,11.4525792 31.1360276,11.3598662 C31.1428175,11.2673602 31.1364657,11.179614 31.1165342,11.0972485 C31.0968217,11.014676 31.0584918,10.9271368 31.0013256,10.8340099 C30.9439404,10.7412969 30.8791082,10.6521021 30.806391,10.5668393 C30.7334548,10.4817835 30.6436535,10.3861732 30.5365489,10.2804225 L29.5489531,9.30403919 C29.3693504,9.12647733 29.2068318,8.99382329 29.0607404,8.90607711 C28.9150869,8.81812397 28.7615486,8.76824937 28.6007823,8.75624635 L28.6007823,8.75624635 Z" id="Fill-15" fill="#FFFFFF" fill-rule="nonzero"></path>
            </g>
            <g id="cod_bw-copy">
                <g id="Rectangle-22">
                    <g id="path-1-Clipped">
                        <mask id="mask-4" fill="white">
                            <use xlink:href="#path-3"></use>
                        </mask>
                        <g id="path-1"></g>
                        <rect id="path-1" stroke="#C9C9C9" mask="url(#mask-4)" x="0" y="0" width="49.9013104" height="31.3226687" rx="4"></rect>
                    </g>
                </g>
                <polygon id="Fill-1" fill="#C9C9C9" fill-rule="nonzero" points="15.1282142 2.76996951 12.5114905 17.8269259 20.5745565 3.61514743"></polygon>
                <path d="M12.6717531,18.4980601 C12.5561064,18.4394937 12.4765994,18.3422279 12.4411169,18.2323382 L11.9047181,21.3183551 L21.0379535,22.7359527 L12.6717531,18.4980601 Z" id="Fill-2" fill="#C9C9C9" fill-rule="nonzero"></path>
                <polygon id="Fill-5" fill="#C9C9C9" fill-rule="nonzero" points="27.3512074 3.58302901 22.9421801 1.34964015 15.6314742 14.2352922"></polygon>
                <polygon id="Fill-8" fill="#C9C9C9" fill-rule="nonzero" points="20.9255046 21.6558469 14.8225173 15.6613749 13.5429575 17.9164933"></polygon>
                <path d="M33.1278435,15.2923855 C32.9749621,15.4097254 32.4335257,15.8441104 32.292691,15.9730393 L29.1373781,18.8769415 L28.8079605,17.8264706 L37.9372533,9.52907505 L30.362838,2.0888604 L16.0255049,15.1204113 L23.479236,22.4414235 C23.3701602,22.9027119 23.3029187,23.3619307 23.3270118,23.8141134 L19.5836096,23.1245608 C19.452193,23.1015895 19.1258418,23.0378493 19.0187373,23.1117299 C18.9116327,23.1849897 18.8156986,25.2509573 20.5891657,27.5545016 L20.5891657,29.5794933 C20.5891657,29.8286593 20.8024987,30.0304342 21.066208,30.0304342 C21.3299174,30.0304342 21.5434693,29.8286593 21.5434693,29.5794933 L21.5434693,27.4065334 C21.5434693,27.3086467 21.5099581,27.2144851 21.4484113,27.1360517 C20.3878793,25.7979223 20.0794883,24.712891 19.9936294,24.1185346 C19.9936294,24.1185346 24.1003985,24.8002232 24.2123217,24.6936447 C24.3242448,24.5889288 24.2747445,22.8445593 24.5515956,22.093543 C25.1666252,20.4228473 24.9784805,18.5075384 23.8804948,15.2634127 C23.4249171,13.9126594 23.9236432,13.2874679 24.2618219,13.0349906 C24.4648606,12.8808139 25.0185625,12.9526251 25.3166593,13.1721975 C25.8887595,13.5939586 26.8542336,15.1402783 27.2885655,16.1474969 L28.4470029,19.8483581 C28.4945319,19.9996375 28.622225,20.1167704 28.7843055,20.1569184 C28.9435387,20.1949969 29.1170086,20.1527794 29.2370357,20.0437175 L32.0552649,17.4502382 C32.0011651,18.0568043 31.9247244,18.802647 31.8305425,19.4508099 C31.3497768,22.7530881 29.0396918,27.018091 29.0164749,27.0603085 C28.9816494,27.1246695 28.9630321,27.195239 28.9630321,27.267257 L28.9630321,29.4404239 C28.9630321,29.6895899 29.176584,29.8913648 29.4402935,29.8913648 C29.7040027,29.8913648 29.9175548,29.6895899 29.9175548,29.4404239 L29.9175548,27.3756981 C30.2817977,26.6915262 32.30868,22.7847512 32.775647,19.5731165 C32.9786856,18.1739373 33.0969606,16.3989394 33.1017792,16.3240241 C33.1140448,16.1381843 33.250718,15.1982239 33.1278435,15.2923855" id="Fill-10" fill="#C9C9C9" fill-rule="nonzero"></path>
                <polygon id="Fill-13" fill="#FFFFFF" fill-rule="nonzero" points="26.701177 10.0301596 25.988461 10.6737696 26.637878 12.2498898 25.4945536 11.1199507 24.857183 11.6954746 27.8701277 14.6736714 28.5074983 14.0979405 27.4145502 13.017669 27.2454608 12.6319169 29.0993111 13.5633923 29.7614318 12.9657249 27.2921137 11.8299912"></polygon>
                <path d="M30.2338526,11.1868572 C30.2796294,11.2321789 30.3157689,11.2719131 30.3422713,11.3058526 C30.3687737,11.3397922 30.3862958,11.3741456 30.3946189,11.408913 C30.402942,11.4434734 30.4049132,11.4741018 30.4003137,11.5003842 C30.395495,11.5268737 30.379068,11.5591576 30.3508135,11.5972362 C30.3223398,11.6355217 30.291676,11.6713238 30.2581646,11.7046425 C30.2250915,11.7379613 30.1780006,11.7818343 30.1173299,11.8368826 L27.9596882,9.70407075 C28.1066557,9.57348622 28.22734,9.49608745 28.321741,9.47228837 C28.4157038,9.44828233 28.5127331,9.48553307 28.6119526,9.5836267 L30.2338526,11.1868572 Z M28.6007823,8.75624635 C28.440016,8.74424334 28.2735549,8.78170102 28.101399,8.86841247 C27.9290243,8.95553782 27.7378131,9.0939864 27.5277656,9.28375823 L26.8693683,9.87832144 L29.8823132,12.8565182 L30.5334825,12.2681634 C30.6631469,12.1512375 30.7704705,12.04052 30.8561102,11.935804 C30.941093,11.8315019 31.0074583,11.7325806 31.0547683,11.6392467 C31.1020783,11.5457059 31.1292377,11.4525792 31.1360276,11.3598662 C31.1428175,11.2673602 31.1364657,11.179614 31.1165342,11.0972485 C31.0968217,11.014676 31.0584918,10.9271368 31.0013256,10.8340099 C30.9439404,10.7412969 30.8791082,10.6521021 30.806391,10.5668393 C30.7334548,10.4817835 30.6436535,10.3861732 30.5365489,10.2804225 L29.5489531,9.30403919 C29.3693504,9.12647733 29.2068318,8.99382329 29.0607404,8.90607711 C28.9150869,8.81812397 28.7615486,8.76824937 28.6007823,8.75624635 L28.6007823,8.75624635 Z" id="Fill-15" fill="#FFFFFF" fill-rule="nonzero"></path>
            </g>
        </g>
    </g>
</svg>