<?xml version="1.0" encoding="iso-8859-1"?>
<!-- Generator: Adobe Illustrator 19.0.0, SVG Export Plug-In . SVG Version: 6.00 Build 0)  -->
<svg version="1.1" id="dish" xmlns="http://www.w3.org/2000/svg" xmlns:xlink="http://www.w3.org/1999/xlink" x="0px" y="0px"
	 viewBox="0 0 512 512" style="enable-background:new 0 0 512 512;" xml:space="preserve">
<g>
	<g>
		<path d="M262.603,56.935c-1.86-1.86-4.44-2.93-7.07-2.93c-2.64,0-5.21,1.069-7.07,2.93c-1.86,1.86-2.93,4.44-2.93,7.07
			c0,2.63,1.07,5.21,2.93,7.069c1.86,1.861,4.44,2.931,7.07,2.931s5.21-1.07,7.07-2.931c1.86-1.859,2.93-4.439,2.93-7.069
			C265.533,61.375,264.463,58.795,262.603,56.935z"/>
	</g>
</g>
<g>
	<g>
		<path d="M511.987,257.495V11.825c0-3.696-2.039-7.091-5.302-8.828c-3.264-1.734-7.218-1.531-10.284,0.533
			c-26.452,17.813-47.568,41.562-62.065,68.831c-21.509-20.929-46.24-37.744-73.706-50.059
			C327.638,7.507,292.433,0.006,255.994,0.006c-45.321,0-89.211,11.799-128.018,34.265V10.006c0-5.522-4.477-10-10-10
			c-5.523,0-10,4.478-10,10v42.255c-0.001,0.076-0.001,0.151,0,0.226v43.506c0,20.81-14.532,38.276-33.978,42.817V10.133
			c0-5.522-4.477-10-10-10c-5.523,0-10,4.478-10,10V138.81c-19.446-4.541-33.978-22.007-33.978-42.817V10.006
			c0-5.522-4.477-10-10-10c-5.523,0-10,4.478-10,10v85.987c0,20.431,9.639,38.643,24.594,50.364C8.493,180.387,0,218.1,0,256
			c0,41.966,10.37,83.508,29.999,120.32v101.674c0,18.747,15.252,33.999,33.999,33.999c18.748,0,33.999-15.252,33.999-33.999
			v-20.596c44.955,35.341,100.266,54.596,157.996,54.596c40.738,0,81.278-9.81,117.239-28.366
			c26.432-13.642,50.501-32.038,70.769-53.931v48.298c0,18.747,15.252,33.999,33.999,33.999s33.999-15.252,33.999-34
			L511.987,257.495z M73.998,159.183c1.75-0.276,3.473-0.631,5.173-1.046c-1.822,3.275-3.544,6.594-5.173,9.952V159.183z
			 M29.999,280.126v43.892C23.408,302.05,20,279.097,20,256c0-35.032,7.457-68.581,22.134-99.88
			c3.801,1.386,7.769,2.418,11.865,3.064v88.447C40.117,251.911,29.999,264.858,29.999,280.126z M77.998,477.994
			c0,7.72-6.28,14-14,14c-7.72,0-14-6.28-14-14V280.126c0-7.72,6.28-14,14-14c7.72,0,14,6.28,14,14V477.994z M74.157,247.678
			c3.565-76.961,56.282-144.68,130.66-166.424c5.301-1.55,8.342-7.104,6.792-12.404c-1.55-5.3-7.101-8.342-12.404-6.793
			c-26.011,7.605-50.372,20.612-71.359,37.821c0.078-1.287,0.129-2.58,0.129-3.886V57.719
			c38.145-24.686,82.289-37.713,128.019-37.713c63.727,0,125.113,26.061,169.421,71.711c-5.052,12.764-8.745,26.106-10.96,39.826
			c-4.96-6.305-10.281-12.339-15.976-18.034c-25.026-25.025-56.228-43.062-90.23-52.159c-5.333-1.426-10.817,1.74-12.245,7.076
			c-1.427,5.335,1.741,10.817,7.076,12.244c30.613,8.19,58.712,24.436,81.257,46.981c10.683,10.684,19.963,22.639,27.652,35.545V266
			c0,5.522,4.477,10,10,10h14.39c-4.512,40.908-22.754,79.05-52.042,108.337c-34.281,34.282-79.861,53.162-128.343,53.162
			c-48.482,0-94.061-18.88-128.343-53.162c-11.659-11.656-21.609-24.762-29.654-38.962v-65.248
			C97.997,264.916,87.957,252.008,74.157,247.678z M444.002,398.618c-44.482,58.519-114.503,93.376-188.008,93.376
			c-58.634,0-114.563-21.539-157.996-60.728v-50.219c4.823,6.079,9.988,11.909,15.512,17.433
			c38.059,38.059,88.661,59.02,142.484,59.02c53.824,0,104.425-20.961,142.485-59.02c20.089-20.089,35.495-43.935,45.523-69.936
			V398.618z M431.989,256.001v-93.858c0-50.485,22.121-97.867,59.998-130.189v224.046H431.989z M478.001,491.994
			c-7.72,0-14-6.28-14-14V276h27.987L492,477.994C492,485.714,485.72,491.994,478.001,491.994z"/>
	</g>
</g>
<g>
	<g>
		<path d="M255.994,388.997c-0.055,0-0.109,0-0.164,0.001c-6.373,0.104-10.12,5.23-10.06,10.127c0.06,4.87,3.892,9.877,10.208,9.877
			c0.033,0,0.065,0,0.098,0c6.374-0.053,10.162-5.148,10.142-10.044C266.198,394.062,262.368,388.997,255.994,388.997z"/>
	</g>
</g>
<g>
	<g>
		<path d="M395.803,287.799c-5.287-1.599-10.867,1.396-12.462,6.685c-12.613,41.802-44.963,74.751-86.537,88.139
			c-5.257,1.692-8.146,7.327-6.453,12.584c1.364,4.237,5.29,6.936,9.516,6.936c1.016,0,2.049-0.156,3.068-0.484
			c47.826-15.401,85.042-53.308,99.552-101.397C404.083,294.974,401.091,289.394,395.803,287.799z"/>
	</g>
</g>
<g>
</g>
<g>
</g>
<g>
</g>
<g>
</g>
<g>
</g>
<g>
</g>
<g>
</g>
<g>
</g>
<g>
</g>
<g>
</g>
<g>
</g>
<g>
</g>
<g>
</g>
<g>
</g>
<g>
</g>
</svg>
