<?xml version="1.0" encoding="utf-8"?>
<!-- Generator: Adobe Illustrator 21.0.0, SVG Export Plug-In . SVG Version: 6.00 Build 0)  -->
<svg version="1.1" id="Layer_1" xmlns="http://www.w3.org/2000/svg" xmlns:xlink="http://www.w3.org/1999/xlink" x="0px" y="0px"
	 viewBox="0 0 42 42" style="enable-background:new 0 0 42 42;" xml:space="preserve">
<style type="text/css">
	.st0{fill:#009a9a;stroke:#FFFFFF;stroke-width:2;}
	.st1{fill:#FFFFFF;}
</style>
<title>restaurant_icon_color</title>
<desc>Created with Sketch.</desc>
<g id="Colors-_x26_-Icons">
	<g id="Artboard-2" transform="translate(-78.000000, -123.000000)">
		<g id="restaurant_icon_color" transform="translate(79.000000, 124.000000)">
			<circle id="Oval" class="st0" cx="20" cy="20" r="20"/>
			<g id="Group" transform="translate(9.000000, 11.000000)">
				<g id="Shape">
					<g>
						<path class="st1" d="M11.5,5.5c-2.5,0-4.6,2-4.6,4.4s2.1,4.4,4.6,4.4s4.6-2,4.6-4.4S14,5.5,11.5,5.5z M11.5,13.5
							c-2.1,0-3.8-1.7-3.8-3.6s1.8-3.6,3.8-3.6s3.8,1.7,3.8,3.6S13.5,13.5,11.5,13.5z"/>
						<path class="st1" d="M21.8,8.7V0.5c0-0.1-0.1-0.3-0.2-0.3c-0.2-0.1-0.3,0-0.4,0.1c-1.1,1-1.6,2.4-1.6,3.8v2.2
							c0,0.8,0.2,1.7,0.6,2.4l0.1,0.2c-0.4,0.3-0.7,0.7-0.7,1.2v6.5c0,0.8,0.7,1.5,1.5,1.5s1.5-0.7,1.5-1.5V9.9
							C22.6,9.4,22.3,8.9,21.8,8.7z M20.9,8.5l-0.1-0.2c-0.3-0.7-0.5-1.3-0.5-2.1V3.9c0-0.9,0.3-1.7,0.8-2.5v7H20.9L20.9,8.5z
							 M21.8,16.5c0,0.4-0.3,0.7-0.8,0.7c-0.4,0-0.8-0.3-0.8-0.7V9.9c0-0.4,0.3-0.7,0.8-0.7c0.4,0,0.8,0.3,0.8,0.7V16.5z"/>
						<path class="st1" d="M3.4,0.5c-0.2,0-0.4,0.1-0.4,0.4v4c0,0.5-0.3,0.9-0.8,1v-5c0-0.2-0.2-0.4-0.4-0.4S1.5,0.6,1.5,0.8v5
							c-0.5-0.1-0.8-0.5-0.8-1v-4c0-0.2-0.2-0.4-0.4-0.4S0,0.6,0,0.8v4c0,0.9,0.6,1.6,1.5,1.8v1.9C0.9,8.7,0.4,9.2,0.4,9.9v6.5
							c0,0.8,0.7,1.5,1.5,1.5s1.5-0.7,1.5-1.5V9.9c0-0.7-0.5-1.2-1.1-1.4V6.6c0.9-0.2,1.5-0.9,1.5-1.8v-4C3.8,0.6,3.7,0.5,3.4,0.5z
							 M2.7,9.9v6.5c0,0.4-0.3,0.7-0.8,0.7s-0.8-0.3-0.8-0.7V9.9c0-0.4,0.3-0.7,0.8-0.7S2.7,9.5,2.7,9.9z"/>
						<path class="st1" d="M1.5,11.4c0,0.2,0.2,0.4,0.4,0.4s0.4-0.1,0.4-0.4c0-0.2-0.2-0.4-0.4-0.4S1.5,11.1,1.5,11.4z"/>
						<path class="st1" d="M21,11c-0.2,0-0.4,0.1-0.4,0.4c0,0.2,0.2,0.4,0.4,0.4s0.4-0.1,0.4-0.4C21.4,11.1,21.3,11,21,11z"/>
						<path class="st1" d="M11.5,3c-4,0-7.3,3.1-7.3,6.9s3.3,6.9,7.3,6.9s7.3-3.1,7.3-6.9S15.5,3,11.5,3z M11.5,16.1
							C7.9,16.1,5,13.3,5,9.9s2.9-6.2,6.5-6.2S18,6.5,18,9.9S15.1,16.1,11.5,16.1z"/>
					</g>
				</g>
			</g>
		</g>
	</g>
</g>
</svg>
