<?xml version="1.0" encoding="UTF-8"?>
<svg width="30px" height="27px" viewBox="0 0 30 27" version="1.1" xmlns="http://www.w3.org/2000/svg" xmlns:xlink="http://www.w3.org/1999/xlink">
    <!-- Generator: Sketch 48.1 (47250) - http://www.bohemiancoding.com/sketch -->
    <title>shopping_cart_icon_white</title>
    <desc>Created with Sketch.</desc>
    <defs></defs>
    <g id="Page-1" stroke="none" stroke-width="1" fill="none" fill-rule="evenodd">
        <g id="shopping_cart_icon_white" fill="#FFFFFF" fill-rule="nonzero">
            <path d="M28.5870742,4.06042004 L5.54727345,4.06042004 C5.50241323,4.06042004 5.46201032,4.07730724 5.41957247,4.08662424 L4.48245033,0.969783077 C4.47188994,0.936105881 4.4494114,0.911163419 4.43448971,0.880009536 C4.40891077,0.55944513 4.1480829,0.305555731 3.82175662,0.305555731 L3.81923739,0.305555731 L0.770588807,0.31856076 C0.426241298,0.320501802 0.149135686,0.601177675 0.150394878,0.945422886 C0.151654071,1.28908583 0.430019725,1.56665595 0.773108042,1.56665595 L0.775627276,1.56665595 L3.35794387,1.5553979 L9.31901374,21.3722574 C8.72682112,21.9142957 8.34885266,22.6864453 8.34885266,23.552833 C8.34885266,25.1889441 9.67266245,26.5155548 11.3066185,26.5155548 C12.9399925,26.5155548 14.2643843,25.1888471 14.2643843,23.552833 C14.2643843,23.1261902 14.1709823,22.7232283 14.0090783,22.3571462 L22.6147651,22.3571462 C22.452862,22.7233253 22.35946,23.1261902 22.35946,23.552833 C22.35946,25.1889441 23.6832698,26.5155548 25.3172258,26.5155548 C26.9505998,26.5155548 28.2749916,25.1888471 28.2749916,23.552833 C28.2749916,21.916819 26.950503,20.5901113 25.3172258,20.5901113 C24.6970319,20.5901113 24.1222793,20.7828575 23.6465484,21.1097304 L12.9767138,21.1097304 C12.5009829,20.7828575 11.9268124,20.5901113 11.3066185,20.5901113 C10.9984103,20.5901113 10.706965,20.650575 10.4273402,20.7379222 L9.53808179,17.7826735 L25.2263422,17.7701537 C25.5009294,17.7701537 25.726974,17.5886656 25.8092336,17.3409876 C25.830453,17.3016813 25.8534158,17.2636367 25.8659143,17.2187014 L29.1867277,4.95223555 C29.207947,4.87430232 29.2103686,4.79627215 29.2016485,4.72086233 C29.2022305,4.70776027 29.2091094,4.69718152 29.2091094,4.68466173 C29.2097874,4.33983425 28.9308406,4.06042004 28.5870742,4.06042004 Z M25.3179038,21.8370418 C26.262486,21.8370418 27.0303402,22.6060859 27.0303402,23.5523478 C27.0303402,24.4985126 26.2625828,25.2676537 25.3179038,25.2676537 C24.3732248,25.2676537 23.6054675,24.4986097 23.6054675,23.5523478 C23.6055644,22.6060859 24.3733217,21.8370418 25.3179038,21.8370418 Z M11.3072965,21.8370418 C12.2519755,21.8370418 13.0197329,22.6060859 13.0197329,23.5523478 C13.0197329,24.4985126 12.2519755,25.2676537 11.3072965,25.2676537 C10.3626175,25.2676537 9.59486016,24.4986097 9.59486016,23.5523478 C9.59486016,22.6060859 10.3626175,21.8370418 11.3072965,21.8370418 Z M24.7643706,16.5233202 L9.16398947,16.53584 L5.78707655,5.30851522 L27.8006168,5.30851522 L24.7643706,16.5233202 Z" id="Shape"></path>
        </g>
    </g>
</svg>