<?xml version="1.0" encoding="UTF-8"?>
<svg width="24px" height="25px" viewBox="0 0 24 25" version="1.1" xmlns="http://www.w3.org/2000/svg" xmlns:xlink="http://www.w3.org/1999/xlink">
    <!-- Generator: Sketch 46.2 (44496) - http://www.bohemiancoding.com/sketch -->
    <title>Shape</title>
    <desc>Created with Sketch.</desc>
    <defs></defs>
    <g id="Mockups" stroke="none" stroke-width="1" fill="none" fill-rule="evenodd">
        <g id="7_Carriage---Checkout-Page-(Logged-in-user)" transform="translate(-82.000000, -982.000000)" fill="#666666">
            <g id="Group-54" transform="translate(55.000000, 421.000000)">
                <g id="Group-53" transform="translate(0.000000, 525.000000)">
                    <g id="Group-49" transform="translate(27.000000, 30.000000)">
                        <g id="Group-47">
                            <g id="wallet" transform="translate(0.000000, 6.000000)">
                                <path d="M23.959491,11.2744721 L22.7982852,11.2744721 L22.7982852,5.93286764 C22.7982852,4.6522673 21.7564739,3.61045603 20.4758736,3.61045603 L18.9031469,3.61045603 L17.2937057,0.716728571 C17.0484121,0.274491793 16.5816026,0 16.0753322,0 C15.8393617,0 15.6052704,0.0608536308 15.3985704,0.175550438 L9.22185461,3.61038376 L2.32241161,3.61038376 C1.04181127,3.61038376 0,4.65219503 0,5.93279536 L0,21.879988 C0,23.1605883 1.04181127,24.2023996 2.32241161,24.2023996 L20.4758736,24.2023996 C21.7564739,24.2023996 22.7982852,23.1605883 22.7982852,21.879988 L22.7982852,17.1965711 L23.959491,17.1965711 L23.959491,11.2744721 Z M20.4758736,4.53937731 C21.1911567,4.53937731 21.7754816,5.0827959 21.8539698,5.77813174 L20.1084391,5.77813174 L19.4200414,4.53937731 L20.4758736,4.53937731 Z M15.8504917,0.987462182 C16.0683217,0.865321284 16.3614599,0.95074764 16.4817217,1.16771035 L19.0456687,5.77769811 L7.23572797,5.77769811 L15.8504917,0.987462182 Z M21.8692916,21.879988 C21.8692916,22.648247 21.2440603,23.2734783 20.4758013,23.2734783 L2.32241161,23.2734783 C1.55415258,23.2734783 0.928921278,22.648247 0.928921278,21.879988 L0.928921278,5.93286764 C0.928921278,5.16460862 1.55415258,4.53937731 2.32241161,4.53937731 L7.55155976,4.53937731 L5.32389769,5.77820402 L2.61273112,5.77820402 C2.35587387,5.77820402 2.14823435,5.98627718 2.14823435,6.24270079 C2.14823435,6.4991244 2.35587387,6.70719757 2.61273112,6.70719757 L3.65316921,6.70719757 L20.6249722,6.70719757 L21.8692916,6.70719757 L21.8692916,11.2749058 L18.472546,11.2749058 C16.8951216,11.2749058 15.6113413,12.5587584 15.6113413,14.1361105 L15.6113413,14.3358723 C15.6113413,15.9132967 16.8951939,17.1970771 18.472546,17.1970771 L21.8692916,17.1970771 L21.8692916,21.879988 Z M23.0304974,16.2676499 L22.7982852,16.2676499 L18.472546,16.2676499 C17.4070293,16.2676499 16.5402626,15.4009554 16.5402626,14.3353664 L16.5402626,14.1356046 C16.5402626,13.0700879 17.406957,12.2033212 18.472546,12.2033212 L22.7982852,12.2033212 L23.0304974,12.2033212 L23.0304974,16.2676499 Z M19.8952345,14.2736455 C19.8952345,14.8403359 19.4363028,15.2991954 18.8696846,15.2991954 C18.3029942,15.2991954 17.8441347,14.8402636 17.8441347,14.2736455 C17.8441347,13.7070274 18.3030665,13.2480956 18.8696846,13.2480956 C19.436375,13.2480233 19.8952345,13.7073887 19.8952345,14.2736455 Z" id="Shape"></path>
                            </g>
                        </g>
                    </g>
                </g>
            </g>
        </g>
    </g>
</svg>